<mxfile host="app.diagrams.net" modified="2023-02-18T09:03:52.648Z" agent="5.0 (Windows NT 10.0; Win64; x64) AppleWebKit/537.36 (KHTML, like Gecko) Chrome/110.0.0.0 Safari/537.36" etag="vZxYzqoh6CE7c_sS-J9a" version="20.8.20" type="github" pages="4">
  <diagram id="z3SU-9NIy3_Db4be6t5X" name="proposal1">
    <mxGraphModel dx="2901" dy="2293" grid="1" gridSize="10" guides="1" tooltips="1" connect="1" arrows="1" fold="1" page="1" pageScale="1" pageWidth="827" pageHeight="1169" math="0" shadow="0">
      <root>
        <mxCell id="0" />
        <mxCell id="1" parent="0" />
        <mxCell id="zB6_l2PBLwlegObrJB-d-13" style="edgeStyle=orthogonalEdgeStyle;rounded=0;orthogonalLoop=1;jettySize=auto;html=1;entryX=0;entryY=0.5;entryDx=0;entryDy=0;entryPerimeter=0;" parent="1" source="zB6_l2PBLwlegObrJB-d-1" target="zB6_l2PBLwlegObrJB-d-12" edge="1">
          <mxGeometry relative="1" as="geometry">
            <Array as="points">
              <mxPoint x="580" y="189" />
              <mxPoint x="580" y="271" />
            </Array>
          </mxGeometry>
        </mxCell>
        <mxCell id="zB6_l2PBLwlegObrJB-d-15" value="&lt;b&gt;2. Push each PUUID to queue&lt;/b&gt;" style="edgeLabel;html=1;align=center;verticalAlign=middle;resizable=0;points=[];" parent="zB6_l2PBLwlegObrJB-d-13" vertex="1" connectable="0">
          <mxGeometry x="0.2588" y="1" relative="1" as="geometry">
            <mxPoint as="offset" />
          </mxGeometry>
        </mxCell>
        <mxCell id="zB6_l2PBLwlegObrJB-d-1" value="&lt;b&gt;TrackerLambda1&lt;/b&gt;" style="outlineConnect=0;dashed=0;verticalLabelPosition=bottom;verticalAlign=top;align=center;html=1;shape=mxgraph.aws3.lambda_function;fillColor=#F58534;gradientColor=none;" parent="1" vertex="1">
          <mxGeometry x="160" y="153" width="69" height="72" as="geometry" />
        </mxCell>
        <mxCell id="zB6_l2PBLwlegObrJB-d-3" style="edgeStyle=orthogonalEdgeStyle;rounded=0;orthogonalLoop=1;jettySize=auto;html=1;entryX=0;entryY=0.5;entryDx=0;entryDy=0;entryPerimeter=0;" parent="1" source="zB6_l2PBLwlegObrJB-d-2" target="zB6_l2PBLwlegObrJB-d-1" edge="1">
          <mxGeometry relative="1" as="geometry" />
        </mxCell>
        <mxCell id="zB6_l2PBLwlegObrJB-d-2" value="&lt;b&gt;Event1&lt;/b&gt;" style="sketch=0;outlineConnect=0;fontColor=#232F3E;gradientColor=none;fillColor=#B0084D;strokeColor=none;dashed=0;verticalLabelPosition=bottom;verticalAlign=top;align=center;html=1;fontSize=12;fontStyle=0;aspect=fixed;pointerEvents=1;shape=mxgraph.aws4.event_time_based;" parent="1" vertex="1">
          <mxGeometry x="-110" y="150" width="78" height="78" as="geometry" />
        </mxCell>
        <mxCell id="zB6_l2PBLwlegObrJB-d-14" style="edgeStyle=orthogonalEdgeStyle;rounded=0;orthogonalLoop=1;jettySize=auto;html=1;entryX=0;entryY=0.5;entryDx=0;entryDy=0;entryPerimeter=0;" parent="1" source="zB6_l2PBLwlegObrJB-d-4" target="zB6_l2PBLwlegObrJB-d-12" edge="1">
          <mxGeometry relative="1" as="geometry">
            <Array as="points">
              <mxPoint x="430" y="349" />
              <mxPoint x="430" y="350" />
              <mxPoint x="580" y="350" />
              <mxPoint x="580" y="271" />
            </Array>
          </mxGeometry>
        </mxCell>
        <mxCell id="zB6_l2PBLwlegObrJB-d-16" value="&lt;b&gt;2. Push each PUUID to queue&lt;/b&gt;" style="edgeLabel;html=1;align=center;verticalAlign=middle;resizable=0;points=[];" parent="zB6_l2PBLwlegObrJB-d-14" vertex="1" connectable="0">
          <mxGeometry x="0.2848" y="-3" relative="1" as="geometry">
            <mxPoint as="offset" />
          </mxGeometry>
        </mxCell>
        <mxCell id="zB6_l2PBLwlegObrJB-d-4" value="&lt;b&gt;TrackerLambda2&lt;/b&gt;" style="outlineConnect=0;dashed=0;verticalLabelPosition=bottom;verticalAlign=top;align=center;html=1;shape=mxgraph.aws3.lambda_function;fillColor=#F58534;gradientColor=none;" parent="1" vertex="1">
          <mxGeometry x="160" y="313" width="69" height="72" as="geometry" />
        </mxCell>
        <mxCell id="zB6_l2PBLwlegObrJB-d-5" style="edgeStyle=orthogonalEdgeStyle;rounded=0;orthogonalLoop=1;jettySize=auto;html=1;entryX=0;entryY=0.5;entryDx=0;entryDy=0;entryPerimeter=0;" parent="1" source="zB6_l2PBLwlegObrJB-d-6" target="zB6_l2PBLwlegObrJB-d-4" edge="1">
          <mxGeometry relative="1" as="geometry" />
        </mxCell>
        <mxCell id="zB6_l2PBLwlegObrJB-d-6" value="&lt;b&gt;Event2&lt;/b&gt;" style="sketch=0;outlineConnect=0;fontColor=#232F3E;gradientColor=none;fillColor=#B0084D;strokeColor=none;dashed=0;verticalLabelPosition=bottom;verticalAlign=top;align=center;html=1;fontSize=12;fontStyle=0;aspect=fixed;pointerEvents=1;shape=mxgraph.aws4.event_time_based;" parent="1" vertex="1">
          <mxGeometry x="-110" y="310" width="78" height="78" as="geometry" />
        </mxCell>
        <mxCell id="zB6_l2PBLwlegObrJB-d-7" value="" style="sketch=0;points=[[0,0,0],[0.25,0,0],[0.5,0,0],[0.75,0,0],[1,0,0],[0,1,0],[0.25,1,0],[0.5,1,0],[0.75,1,0],[1,1,0],[0,0.25,0],[0,0.5,0],[0,0.75,0],[1,0.25,0],[1,0.5,0],[1,0.75,0]];outlineConnect=0;fontColor=#232F3E;gradientColor=#4D72F3;gradientDirection=north;fillColor=#3334B9;strokeColor=#ffffff;dashed=0;verticalLabelPosition=bottom;verticalAlign=top;align=center;html=1;fontSize=12;fontStyle=0;aspect=fixed;shape=mxgraph.aws4.resourceIcon;resIcon=mxgraph.aws4.dynamodb;" parent="1" vertex="1">
          <mxGeometry x="414" y="232" width="78" height="78" as="geometry" />
        </mxCell>
        <mxCell id="zB6_l2PBLwlegObrJB-d-21" style="edgeStyle=orthogonalEdgeStyle;rounded=0;orthogonalLoop=1;jettySize=auto;html=1;entryX=0;entryY=0.5;entryDx=0;entryDy=0;entryPerimeter=0;" parent="1" source="zB6_l2PBLwlegObrJB-d-12" target="zB6_l2PBLwlegObrJB-d-18" edge="1">
          <mxGeometry relative="1" as="geometry" />
        </mxCell>
        <mxCell id="zB6_l2PBLwlegObrJB-d-12" value="&lt;b&gt;PlayersTrack&lt;/b&gt;" style="sketch=0;points=[[0,0,0],[0.25,0,0],[0.5,0,0],[0.75,0,0],[1,0,0],[0,1,0],[0.25,1,0],[0.5,1,0],[0.75,1,0],[1,1,0],[0,0.25,0],[0,0.5,0],[0,0.75,0],[1,0.25,0],[1,0.5,0],[1,0.75,0]];outlineConnect=0;fontColor=#232F3E;gradientColor=#FF4F8B;gradientDirection=north;fillColor=#BC1356;strokeColor=#ffffff;dashed=0;verticalLabelPosition=bottom;verticalAlign=top;align=center;html=1;fontSize=12;fontStyle=0;aspect=fixed;shape=mxgraph.aws4.resourceIcon;resIcon=mxgraph.aws4.sqs;" parent="1" vertex="1">
          <mxGeometry x="630" y="232" width="78" height="78" as="geometry" />
        </mxCell>
        <mxCell id="zB6_l2PBLwlegObrJB-d-9" style="edgeStyle=orthogonalEdgeStyle;rounded=0;orthogonalLoop=1;jettySize=auto;html=1;entryX=0.5;entryY=1;entryDx=0;entryDy=0;entryPerimeter=0;" parent="1" source="zB6_l2PBLwlegObrJB-d-4" target="zB6_l2PBLwlegObrJB-d-7" edge="1">
          <mxGeometry relative="1" as="geometry" />
        </mxCell>
        <mxCell id="zB6_l2PBLwlegObrJB-d-11" value="&lt;b&gt;1. Scan partition 2&lt;/b&gt;" style="edgeLabel;html=1;align=center;verticalAlign=middle;resizable=0;points=[];" parent="zB6_l2PBLwlegObrJB-d-9" vertex="1" connectable="0">
          <mxGeometry x="-0.2852" relative="1" as="geometry">
            <mxPoint as="offset" />
          </mxGeometry>
        </mxCell>
        <mxCell id="zB6_l2PBLwlegObrJB-d-8" style="edgeStyle=orthogonalEdgeStyle;rounded=0;orthogonalLoop=1;jettySize=auto;html=1;" parent="1" source="zB6_l2PBLwlegObrJB-d-1" edge="1">
          <mxGeometry relative="1" as="geometry">
            <mxPoint x="450" y="230" as="targetPoint" />
          </mxGeometry>
        </mxCell>
        <mxCell id="zB6_l2PBLwlegObrJB-d-10" value="&lt;b&gt;1. Scan partition 1&lt;/b&gt;" style="edgeLabel;html=1;align=center;verticalAlign=middle;resizable=0;points=[];" parent="zB6_l2PBLwlegObrJB-d-8" vertex="1" connectable="0">
          <mxGeometry x="-0.3435" y="-2" relative="1" as="geometry">
            <mxPoint as="offset" />
          </mxGeometry>
        </mxCell>
        <mxCell id="zB6_l2PBLwlegObrJB-d-24" style="edgeStyle=orthogonalEdgeStyle;rounded=0;orthogonalLoop=1;jettySize=auto;html=1;entryX=0;entryY=0.5;entryDx=0;entryDy=0;entryPerimeter=0;" parent="1" source="zB6_l2PBLwlegObrJB-d-18" target="zB6_l2PBLwlegObrJB-d-23" edge="1">
          <mxGeometry relative="1" as="geometry">
            <Array as="points">
              <mxPoint x="880" y="271" />
              <mxPoint x="880" y="27" />
              <mxPoint x="970" y="27" />
            </Array>
          </mxGeometry>
        </mxCell>
        <mxCell id="zB6_l2PBLwlegObrJB-d-25" value="1. get matches for puuid" style="edgeLabel;html=1;align=center;verticalAlign=middle;resizable=0;points=[];fontStyle=1" parent="zB6_l2PBLwlegObrJB-d-24" vertex="1" connectable="0">
          <mxGeometry x="0.2943" y="-1" relative="1" as="geometry">
            <mxPoint x="66" y="-1" as="offset" />
          </mxGeometry>
        </mxCell>
        <mxCell id="zB6_l2PBLwlegObrJB-d-26" style="edgeStyle=orthogonalEdgeStyle;rounded=0;orthogonalLoop=1;jettySize=auto;html=1;" parent="1" source="zB6_l2PBLwlegObrJB-d-18" edge="1">
          <mxGeometry relative="1" as="geometry">
            <mxPoint x="1130" y="271" as="targetPoint" />
          </mxGeometry>
        </mxCell>
        <mxCell id="zB6_l2PBLwlegObrJB-d-31" value="&lt;b&gt;2. for each match, push details&lt;/b&gt;" style="edgeLabel;html=1;align=center;verticalAlign=middle;resizable=0;points=[];" parent="zB6_l2PBLwlegObrJB-d-26" vertex="1" connectable="0">
          <mxGeometry x="-0.3716" y="-2" relative="1" as="geometry">
            <mxPoint x="49" y="-2" as="offset" />
          </mxGeometry>
        </mxCell>
        <mxCell id="zB6_l2PBLwlegObrJB-d-18" value="&lt;b&gt;Consumer&lt;/b&gt;" style="outlineConnect=0;dashed=0;verticalLabelPosition=bottom;verticalAlign=top;align=center;html=1;shape=mxgraph.aws3.lambda_function;fillColor=#F58534;gradientColor=none;" parent="1" vertex="1">
          <mxGeometry x="800" y="235" width="69" height="72" as="geometry" />
        </mxCell>
        <mxCell id="zB6_l2PBLwlegObrJB-d-22" value="Sample message format: {puuid: 1231, lastScannedMatchTimeStamp: 784}" style="shape=note;whiteSpace=wrap;html=1;backgroundOutline=1;darkOpacity=0.05;" parent="1" vertex="1">
          <mxGeometry x="630" y="100" width="220" height="110" as="geometry" />
        </mxCell>
        <mxCell id="zB6_l2PBLwlegObrJB-d-23" value="&lt;b&gt;RIOT APIs&lt;/b&gt;" style="outlineConnect=0;dashed=0;verticalLabelPosition=bottom;verticalAlign=top;align=center;html=1;shape=mxgraph.aws3.ec2;fillColor=#F58534;gradientColor=none;" parent="1" vertex="1">
          <mxGeometry x="1060" y="-20" width="76.5" height="93" as="geometry" />
        </mxCell>
        <mxCell id="zB6_l2PBLwlegObrJB-d-33" value="&lt;b&gt;Update last match time (if current time is not greator, can happen on message retry)&lt;/b&gt;" style="edgeStyle=orthogonalEdgeStyle;rounded=0;orthogonalLoop=1;jettySize=auto;html=1;entryX=0.5;entryY=0;entryDx=0;entryDy=0;entryPerimeter=0;exitX=1;exitY=0.5;exitDx=0;exitDy=0;exitPerimeter=0;" parent="1" source="zB6_l2PBLwlegObrJB-d-40" target="zB6_l2PBLwlegObrJB-d-32" edge="1">
          <mxGeometry x="-0.2794" y="11" relative="1" as="geometry">
            <Array as="points">
              <mxPoint x="1790" y="261" />
              <mxPoint x="1790" y="500" />
            </Array>
            <mxPoint as="offset" />
          </mxGeometry>
        </mxCell>
        <mxCell id="zB6_l2PBLwlegObrJB-d-35" style="edgeStyle=orthogonalEdgeStyle;rounded=0;orthogonalLoop=1;jettySize=auto;html=1;entryX=0;entryY=0.5;entryDx=0;entryDy=0;entryPerimeter=0;exitX=0.5;exitY=1;exitDx=0;exitDy=0;exitPerimeter=0;" parent="1" source="zB6_l2PBLwlegObrJB-d-40" target="zB6_l2PBLwlegObrJB-d-32" edge="1">
          <mxGeometry relative="1" as="geometry">
            <Array as="points">
              <mxPoint x="1350" y="303" />
              <mxPoint x="1350" y="540" />
              <mxPoint x="1464" y="540" />
              <mxPoint x="1464" y="539" />
            </Array>
          </mxGeometry>
        </mxCell>
        <mxCell id="zB6_l2PBLwlegObrJB-d-36" value="&lt;b&gt;Update kills/assists/deaths/kda/winrate&lt;/b&gt;" style="edgeLabel;html=1;align=center;verticalAlign=middle;resizable=0;points=[];" parent="zB6_l2PBLwlegObrJB-d-35" vertex="1" connectable="0">
          <mxGeometry x="0.2041" y="-1" relative="1" as="geometry">
            <mxPoint as="offset" />
          </mxGeometry>
        </mxCell>
        <mxCell id="zB6_l2PBLwlegObrJB-d-38" style="edgeStyle=orthogonalEdgeStyle;rounded=0;orthogonalLoop=1;jettySize=auto;html=1;entryX=0;entryY=0.5;entryDx=0;entryDy=0;entryPerimeter=0;" parent="1" source="zB6_l2PBLwlegObrJB-d-27" target="zB6_l2PBLwlegObrJB-d-37" edge="1">
          <mxGeometry relative="1" as="geometry">
            <Array as="points">
              <mxPoint x="1404" y="230" />
              <mxPoint x="1404" y="87" />
            </Array>
          </mxGeometry>
        </mxCell>
        <mxCell id="zB6_l2PBLwlegObrJB-d-39" value="If interseting Event, publish to Discord API" style="edgeLabel;html=1;align=center;verticalAlign=middle;resizable=0;points=[];fontStyle=1" parent="zB6_l2PBLwlegObrJB-d-38" vertex="1" connectable="0">
          <mxGeometry x="0.351" y="-1" relative="1" as="geometry">
            <mxPoint y="1" as="offset" />
          </mxGeometry>
        </mxCell>
        <mxCell id="zB6_l2PBLwlegObrJB-d-42" value="&lt;b&gt;Batches of 10&lt;/b&gt;" style="edgeStyle=orthogonalEdgeStyle;rounded=0;orthogonalLoop=1;jettySize=auto;html=1;entryX=0;entryY=0.5;entryDx=0;entryDy=0;entryPerimeter=0;" parent="1" source="zB6_l2PBLwlegObrJB-d-27" target="zB6_l2PBLwlegObrJB-d-40" edge="1">
          <mxGeometry relative="1" as="geometry" />
        </mxCell>
        <mxCell id="zB6_l2PBLwlegObrJB-d-27" value="&lt;b&gt;PlayerMatchUpdate.fifo&lt;/b&gt;" style="sketch=0;points=[[0,0,0],[0.25,0,0],[0.5,0,0],[0.75,0,0],[1,0,0],[0,1,0],[0.25,1,0],[0.5,1,0],[0.75,1,0],[1,1,0],[0,0.25,0],[0,0.5,0],[0,0.75,0],[1,0.25,0],[1,0.5,0],[1,0.75,0]];outlineConnect=0;fontColor=#232F3E;gradientColor=#FF4F8B;gradientDirection=north;fillColor=#BC1356;strokeColor=#ffffff;dashed=0;verticalLabelPosition=bottom;verticalAlign=top;align=center;html=1;fontSize=12;fontStyle=0;aspect=fixed;shape=mxgraph.aws4.resourceIcon;resIcon=mxgraph.aws4.sqs;" parent="1" vertex="1">
          <mxGeometry x="1130" y="225" width="78" height="78" as="geometry" />
        </mxCell>
        <mxCell id="zB6_l2PBLwlegObrJB-d-28" value="Sample message format: {&lt;br&gt;puuid:X,&lt;br&gt;matchDeatils:...}&lt;br&gt;&lt;br&gt;&lt;b&gt;GroupId will be PUUID, dedupId = matchId&lt;/b&gt;" style="shape=note;whiteSpace=wrap;html=1;backgroundOutline=1;darkOpacity=0.05;" parent="1" vertex="1">
          <mxGeometry x="1110" y="120" width="220" height="100" as="geometry" />
        </mxCell>
        <mxCell id="zB6_l2PBLwlegObrJB-d-32" value="" style="sketch=0;points=[[0,0,0],[0.25,0,0],[0.5,0,0],[0.75,0,0],[1,0,0],[0,1,0],[0.25,1,0],[0.5,1,0],[0.75,1,0],[1,1,0],[0,0.25,0],[0,0.5,0],[0,0.75,0],[1,0.25,0],[1,0.5,0],[1,0.75,0]];outlineConnect=0;fontColor=#232F3E;gradientColor=#4D72F3;gradientDirection=north;fillColor=#3334B9;strokeColor=#ffffff;dashed=0;verticalLabelPosition=bottom;verticalAlign=top;align=center;html=1;fontSize=12;fontStyle=0;aspect=fixed;shape=mxgraph.aws4.resourceIcon;resIcon=mxgraph.aws4.dynamodb;" parent="1" vertex="1">
          <mxGeometry x="1750" y="500" width="78" height="78" as="geometry" />
        </mxCell>
        <mxCell id="zB6_l2PBLwlegObrJB-d-34" value="Incase This lambda had duplicate messages where first one succeded, second failed, went to DLQ, and after 5 minutes (the period where fifo clear dudpulication history) it got re driven, then fifo will process this message twice" style="shape=note;whiteSpace=wrap;html=1;backgroundOutline=1;darkOpacity=0.05;" parent="1" vertex="1">
          <mxGeometry x="730" y="340" width="330" height="150" as="geometry" />
        </mxCell>
        <mxCell id="zB6_l2PBLwlegObrJB-d-37" value="&lt;b&gt;Discord API&lt;/b&gt;" style="outlineConnect=0;dashed=0;verticalLabelPosition=bottom;verticalAlign=top;align=center;html=1;shape=mxgraph.aws3.ec2;fillColor=#F58534;gradientColor=none;" parent="1" vertex="1">
          <mxGeometry x="1790" y="40" width="76.5" height="93" as="geometry" />
        </mxCell>
        <mxCell id="zB6_l2PBLwlegObrJB-d-40" value="&lt;b&gt;Consumer&lt;/b&gt;" style="outlineConnect=0;dashed=0;verticalLabelPosition=bottom;verticalAlign=top;align=center;html=1;shape=mxgraph.aws3.lambda_function;fillColor=#F58534;gradientColor=none;" parent="1" vertex="1">
          <mxGeometry x="1311" y="231" width="69" height="72" as="geometry" />
        </mxCell>
        <mxCell id="zB6_l2PBLwlegObrJB-d-44" value="&lt;b&gt;Will contain GSI on each: kills, assists, deaths, kda, winrate to allow ranking and leadership view&lt;/b&gt;" style="shape=note;whiteSpace=wrap;html=1;backgroundOutline=1;darkOpacity=0.05;" parent="1" vertex="1">
          <mxGeometry x="1690" y="585" width="220" height="100" as="geometry" />
        </mxCell>
        <mxCell id="7otukI2A0QXbbgrTKtuz-1" value="Incase we had like 10 games for this player, we will only update latestScanneddGame once we finish querying all games and pushing to SQS, if failure happened message will go to DLQ, and after 5 minutes of redrive samem messages will again be processesd in fifo" style="shape=note;whiteSpace=wrap;html=1;backgroundOutline=1;darkOpacity=0.05;" vertex="1" parent="1">
          <mxGeometry x="730" y="500" width="340" height="148" as="geometry" />
        </mxCell>
      </root>
    </mxGraphModel>
  </diagram>
  <diagram name="propsal2" id="NX7RhTvulTgbzelreOOQ">
    <mxGraphModel dx="2257" dy="1944" grid="1" gridSize="10" guides="1" tooltips="1" connect="1" arrows="1" fold="1" page="1" pageScale="1" pageWidth="827" pageHeight="1169" math="0" shadow="0">
      <root>
        <mxCell id="cj0vS9jOyUDW4bIudi8N-0" />
        <mxCell id="cj0vS9jOyUDW4bIudi8N-1" parent="cj0vS9jOyUDW4bIudi8N-0" />
        <mxCell id="cj0vS9jOyUDW4bIudi8N-2" style="edgeStyle=orthogonalEdgeStyle;rounded=0;orthogonalLoop=1;jettySize=auto;html=1;entryX=0;entryY=0.5;entryDx=0;entryDy=0;entryPerimeter=0;" edge="1" parent="cj0vS9jOyUDW4bIudi8N-1" source="cj0vS9jOyUDW4bIudi8N-4" target="cj0vS9jOyUDW4bIudi8N-14">
          <mxGeometry relative="1" as="geometry">
            <Array as="points">
              <mxPoint x="580" y="189" />
              <mxPoint x="580" y="271" />
            </Array>
          </mxGeometry>
        </mxCell>
        <mxCell id="cj0vS9jOyUDW4bIudi8N-3" value="&lt;b&gt;2. Push each PUUID to queue&lt;/b&gt;" style="edgeLabel;html=1;align=center;verticalAlign=middle;resizable=0;points=[];" vertex="1" connectable="0" parent="cj0vS9jOyUDW4bIudi8N-2">
          <mxGeometry x="0.2588" y="1" relative="1" as="geometry">
            <mxPoint as="offset" />
          </mxGeometry>
        </mxCell>
        <mxCell id="cj0vS9jOyUDW4bIudi8N-4" value="&lt;b&gt;TrackerLambda1&lt;/b&gt;" style="outlineConnect=0;dashed=0;verticalLabelPosition=bottom;verticalAlign=top;align=center;html=1;shape=mxgraph.aws3.lambda_function;fillColor=#F58534;gradientColor=none;" vertex="1" parent="cj0vS9jOyUDW4bIudi8N-1">
          <mxGeometry x="160" y="153" width="69" height="72" as="geometry" />
        </mxCell>
        <mxCell id="cj0vS9jOyUDW4bIudi8N-5" style="edgeStyle=orthogonalEdgeStyle;rounded=0;orthogonalLoop=1;jettySize=auto;html=1;entryX=0;entryY=0.5;entryDx=0;entryDy=0;entryPerimeter=0;" edge="1" parent="cj0vS9jOyUDW4bIudi8N-1" source="cj0vS9jOyUDW4bIudi8N-6" target="cj0vS9jOyUDW4bIudi8N-4">
          <mxGeometry relative="1" as="geometry" />
        </mxCell>
        <mxCell id="cj0vS9jOyUDW4bIudi8N-6" value="&lt;b&gt;Event1&lt;/b&gt;" style="sketch=0;outlineConnect=0;fontColor=#232F3E;gradientColor=none;fillColor=#B0084D;strokeColor=none;dashed=0;verticalLabelPosition=bottom;verticalAlign=top;align=center;html=1;fontSize=12;fontStyle=0;aspect=fixed;pointerEvents=1;shape=mxgraph.aws4.event_time_based;" vertex="1" parent="cj0vS9jOyUDW4bIudi8N-1">
          <mxGeometry x="-110" y="150" width="78" height="78" as="geometry" />
        </mxCell>
        <mxCell id="cj0vS9jOyUDW4bIudi8N-7" style="edgeStyle=orthogonalEdgeStyle;rounded=0;orthogonalLoop=1;jettySize=auto;html=1;entryX=0;entryY=0.5;entryDx=0;entryDy=0;entryPerimeter=0;" edge="1" parent="cj0vS9jOyUDW4bIudi8N-1" source="cj0vS9jOyUDW4bIudi8N-9" target="cj0vS9jOyUDW4bIudi8N-14">
          <mxGeometry relative="1" as="geometry">
            <Array as="points">
              <mxPoint x="430" y="349" />
              <mxPoint x="430" y="350" />
              <mxPoint x="580" y="350" />
              <mxPoint x="580" y="271" />
            </Array>
          </mxGeometry>
        </mxCell>
        <mxCell id="cj0vS9jOyUDW4bIudi8N-8" value="&lt;b&gt;2. Push each PUUID to queue&lt;/b&gt;" style="edgeLabel;html=1;align=center;verticalAlign=middle;resizable=0;points=[];" vertex="1" connectable="0" parent="cj0vS9jOyUDW4bIudi8N-7">
          <mxGeometry x="0.2848" y="-3" relative="1" as="geometry">
            <mxPoint as="offset" />
          </mxGeometry>
        </mxCell>
        <mxCell id="cj0vS9jOyUDW4bIudi8N-9" value="&lt;b&gt;TrackerLambda2&lt;/b&gt;" style="outlineConnect=0;dashed=0;verticalLabelPosition=bottom;verticalAlign=top;align=center;html=1;shape=mxgraph.aws3.lambda_function;fillColor=#F58534;gradientColor=none;" vertex="1" parent="cj0vS9jOyUDW4bIudi8N-1">
          <mxGeometry x="160" y="313" width="69" height="72" as="geometry" />
        </mxCell>
        <mxCell id="cj0vS9jOyUDW4bIudi8N-10" style="edgeStyle=orthogonalEdgeStyle;rounded=0;orthogonalLoop=1;jettySize=auto;html=1;entryX=0;entryY=0.5;entryDx=0;entryDy=0;entryPerimeter=0;" edge="1" parent="cj0vS9jOyUDW4bIudi8N-1" source="cj0vS9jOyUDW4bIudi8N-11" target="cj0vS9jOyUDW4bIudi8N-9">
          <mxGeometry relative="1" as="geometry" />
        </mxCell>
        <mxCell id="cj0vS9jOyUDW4bIudi8N-11" value="&lt;b&gt;Event2&lt;/b&gt;" style="sketch=0;outlineConnect=0;fontColor=#232F3E;gradientColor=none;fillColor=#B0084D;strokeColor=none;dashed=0;verticalLabelPosition=bottom;verticalAlign=top;align=center;html=1;fontSize=12;fontStyle=0;aspect=fixed;pointerEvents=1;shape=mxgraph.aws4.event_time_based;" vertex="1" parent="cj0vS9jOyUDW4bIudi8N-1">
          <mxGeometry x="-110" y="310" width="78" height="78" as="geometry" />
        </mxCell>
        <mxCell id="cj0vS9jOyUDW4bIudi8N-12" value="" style="sketch=0;points=[[0,0,0],[0.25,0,0],[0.5,0,0],[0.75,0,0],[1,0,0],[0,1,0],[0.25,1,0],[0.5,1,0],[0.75,1,0],[1,1,0],[0,0.25,0],[0,0.5,0],[0,0.75,0],[1,0.25,0],[1,0.5,0],[1,0.75,0]];outlineConnect=0;fontColor=#232F3E;gradientColor=#4D72F3;gradientDirection=north;fillColor=#3334B9;strokeColor=#ffffff;dashed=0;verticalLabelPosition=bottom;verticalAlign=top;align=center;html=1;fontSize=12;fontStyle=0;aspect=fixed;shape=mxgraph.aws4.resourceIcon;resIcon=mxgraph.aws4.dynamodb;" vertex="1" parent="cj0vS9jOyUDW4bIudi8N-1">
          <mxGeometry x="414" y="232" width="78" height="78" as="geometry" />
        </mxCell>
        <mxCell id="cj0vS9jOyUDW4bIudi8N-13" style="edgeStyle=orthogonalEdgeStyle;rounded=0;orthogonalLoop=1;jettySize=auto;html=1;entryX=0;entryY=0.5;entryDx=0;entryDy=0;entryPerimeter=0;" edge="1" parent="cj0vS9jOyUDW4bIudi8N-1" source="cj0vS9jOyUDW4bIudi8N-14" target="cj0vS9jOyUDW4bIudi8N-23">
          <mxGeometry relative="1" as="geometry" />
        </mxCell>
        <mxCell id="cj0vS9jOyUDW4bIudi8N-14" value="&lt;b&gt;PlayersTrack&lt;/b&gt;" style="sketch=0;points=[[0,0,0],[0.25,0,0],[0.5,0,0],[0.75,0,0],[1,0,0],[0,1,0],[0.25,1,0],[0.5,1,0],[0.75,1,0],[1,1,0],[0,0.25,0],[0,0.5,0],[0,0.75,0],[1,0.25,0],[1,0.5,0],[1,0.75,0]];outlineConnect=0;fontColor=#232F3E;gradientColor=#FF4F8B;gradientDirection=north;fillColor=#BC1356;strokeColor=#ffffff;dashed=0;verticalLabelPosition=bottom;verticalAlign=top;align=center;html=1;fontSize=12;fontStyle=0;aspect=fixed;shape=mxgraph.aws4.resourceIcon;resIcon=mxgraph.aws4.sqs;" vertex="1" parent="cj0vS9jOyUDW4bIudi8N-1">
          <mxGeometry x="630" y="232" width="78" height="78" as="geometry" />
        </mxCell>
        <mxCell id="cj0vS9jOyUDW4bIudi8N-15" style="edgeStyle=orthogonalEdgeStyle;rounded=0;orthogonalLoop=1;jettySize=auto;html=1;entryX=0.5;entryY=1;entryDx=0;entryDy=0;entryPerimeter=0;" edge="1" parent="cj0vS9jOyUDW4bIudi8N-1" source="cj0vS9jOyUDW4bIudi8N-9" target="cj0vS9jOyUDW4bIudi8N-12">
          <mxGeometry relative="1" as="geometry" />
        </mxCell>
        <mxCell id="cj0vS9jOyUDW4bIudi8N-16" value="&lt;b&gt;1. Scan partition 2&lt;/b&gt;" style="edgeLabel;html=1;align=center;verticalAlign=middle;resizable=0;points=[];" vertex="1" connectable="0" parent="cj0vS9jOyUDW4bIudi8N-15">
          <mxGeometry x="-0.2852" relative="1" as="geometry">
            <mxPoint as="offset" />
          </mxGeometry>
        </mxCell>
        <mxCell id="cj0vS9jOyUDW4bIudi8N-17" style="edgeStyle=orthogonalEdgeStyle;rounded=0;orthogonalLoop=1;jettySize=auto;html=1;" edge="1" parent="cj0vS9jOyUDW4bIudi8N-1" source="cj0vS9jOyUDW4bIudi8N-4">
          <mxGeometry relative="1" as="geometry">
            <mxPoint x="450" y="230" as="targetPoint" />
          </mxGeometry>
        </mxCell>
        <mxCell id="cj0vS9jOyUDW4bIudi8N-18" value="&lt;b&gt;1. Scan partition 1&lt;/b&gt;" style="edgeLabel;html=1;align=center;verticalAlign=middle;resizable=0;points=[];" vertex="1" connectable="0" parent="cj0vS9jOyUDW4bIudi8N-17">
          <mxGeometry x="-0.3435" y="-2" relative="1" as="geometry">
            <mxPoint as="offset" />
          </mxGeometry>
        </mxCell>
        <mxCell id="cj0vS9jOyUDW4bIudi8N-19" style="edgeStyle=orthogonalEdgeStyle;rounded=0;orthogonalLoop=1;jettySize=auto;html=1;entryX=0;entryY=0.5;entryDx=0;entryDy=0;entryPerimeter=0;" edge="1" parent="cj0vS9jOyUDW4bIudi8N-1" source="cj0vS9jOyUDW4bIudi8N-23" target="cj0vS9jOyUDW4bIudi8N-25">
          <mxGeometry relative="1" as="geometry">
            <Array as="points">
              <mxPoint x="880" y="271" />
              <mxPoint x="880" y="27" />
              <mxPoint x="970" y="27" />
            </Array>
          </mxGeometry>
        </mxCell>
        <mxCell id="cj0vS9jOyUDW4bIudi8N-20" value="1. get matches for puuid" style="edgeLabel;html=1;align=center;verticalAlign=middle;resizable=0;points=[];fontStyle=1" vertex="1" connectable="0" parent="cj0vS9jOyUDW4bIudi8N-19">
          <mxGeometry x="0.2943" y="-1" relative="1" as="geometry">
            <mxPoint x="66" y="-1" as="offset" />
          </mxGeometry>
        </mxCell>
        <mxCell id="cj0vS9jOyUDW4bIudi8N-21" style="edgeStyle=orthogonalEdgeStyle;rounded=0;orthogonalLoop=1;jettySize=auto;html=1;" edge="1" parent="cj0vS9jOyUDW4bIudi8N-1" source="cj0vS9jOyUDW4bIudi8N-23">
          <mxGeometry relative="1" as="geometry">
            <mxPoint x="1130" y="271" as="targetPoint" />
          </mxGeometry>
        </mxCell>
        <mxCell id="cj0vS9jOyUDW4bIudi8N-22" value="&lt;b&gt;2. for each match, push details&lt;/b&gt;" style="edgeLabel;html=1;align=center;verticalAlign=middle;resizable=0;points=[];" vertex="1" connectable="0" parent="cj0vS9jOyUDW4bIudi8N-21">
          <mxGeometry x="-0.3716" y="-2" relative="1" as="geometry">
            <mxPoint x="49" y="-2" as="offset" />
          </mxGeometry>
        </mxCell>
        <mxCell id="_Rm2gR1SMqFmuvwYHthA-1" style="edgeStyle=orthogonalEdgeStyle;rounded=0;orthogonalLoop=1;jettySize=auto;html=1;entryX=0.5;entryY=0;entryDx=0;entryDy=0;entryPerimeter=0;" edge="1" parent="cj0vS9jOyUDW4bIudi8N-1" source="cj0vS9jOyUDW4bIudi8N-23" target="_Rm2gR1SMqFmuvwYHthA-0">
          <mxGeometry relative="1" as="geometry" />
        </mxCell>
        <mxCell id="_Rm2gR1SMqFmuvwYHthA-2" value="&lt;b&gt;get/update latestScannedGame&lt;/b&gt;" style="edgeLabel;html=1;align=center;verticalAlign=middle;resizable=0;points=[];" vertex="1" connectable="0" parent="_Rm2gR1SMqFmuvwYHthA-1">
          <mxGeometry x="-0.1206" y="2" relative="1" as="geometry">
            <mxPoint as="offset" />
          </mxGeometry>
        </mxCell>
        <mxCell id="cj0vS9jOyUDW4bIudi8N-23" value="&lt;b&gt;Consumer&lt;/b&gt;" style="outlineConnect=0;dashed=0;verticalLabelPosition=bottom;verticalAlign=top;align=center;html=1;shape=mxgraph.aws3.lambda_function;fillColor=#F58534;gradientColor=none;" vertex="1" parent="cj0vS9jOyUDW4bIudi8N-1">
          <mxGeometry x="800" y="235" width="69" height="72" as="geometry" />
        </mxCell>
        <mxCell id="cj0vS9jOyUDW4bIudi8N-24" value="Sample message format: {puuid: 1231}" style="shape=note;whiteSpace=wrap;html=1;backgroundOutline=1;darkOpacity=0.05;" vertex="1" parent="cj0vS9jOyUDW4bIudi8N-1">
          <mxGeometry x="630" y="100" width="220" height="110" as="geometry" />
        </mxCell>
        <mxCell id="cj0vS9jOyUDW4bIudi8N-25" value="&lt;b&gt;RIOT APIs&lt;/b&gt;" style="outlineConnect=0;dashed=0;verticalLabelPosition=bottom;verticalAlign=top;align=center;html=1;shape=mxgraph.aws3.ec2;fillColor=#F58534;gradientColor=none;" vertex="1" parent="cj0vS9jOyUDW4bIudi8N-1">
          <mxGeometry x="1060" y="-20" width="76.5" height="93" as="geometry" />
        </mxCell>
        <mxCell id="cj0vS9jOyUDW4bIudi8N-27" style="edgeStyle=orthogonalEdgeStyle;rounded=0;orthogonalLoop=1;jettySize=auto;html=1;entryX=0;entryY=0.5;entryDx=0;entryDy=0;entryPerimeter=0;exitX=0.5;exitY=1;exitDx=0;exitDy=0;exitPerimeter=0;" edge="1" parent="cj0vS9jOyUDW4bIudi8N-1" source="cj0vS9jOyUDW4bIudi8N-37" target="cj0vS9jOyUDW4bIudi8N-34">
          <mxGeometry relative="1" as="geometry">
            <Array as="points">
              <mxPoint x="1350" y="303" />
              <mxPoint x="1350" y="270" />
              <mxPoint x="1860" y="270" />
            </Array>
          </mxGeometry>
        </mxCell>
        <mxCell id="cj0vS9jOyUDW4bIudi8N-28" value="&lt;b&gt;Update kills/assists/deaths/kda/winrate&lt;/b&gt;" style="edgeLabel;html=1;align=center;verticalAlign=middle;resizable=0;points=[];" vertex="1" connectable="0" parent="cj0vS9jOyUDW4bIudi8N-27">
          <mxGeometry x="0.2041" y="-1" relative="1" as="geometry">
            <mxPoint as="offset" />
          </mxGeometry>
        </mxCell>
        <mxCell id="cj0vS9jOyUDW4bIudi8N-29" style="edgeStyle=orthogonalEdgeStyle;rounded=0;orthogonalLoop=1;jettySize=auto;html=1;entryX=0;entryY=0.5;entryDx=0;entryDy=0;entryPerimeter=0;" edge="1" parent="cj0vS9jOyUDW4bIudi8N-1" source="cj0vS9jOyUDW4bIudi8N-32" target="cj0vS9jOyUDW4bIudi8N-36">
          <mxGeometry relative="1" as="geometry">
            <Array as="points">
              <mxPoint x="1404" y="230" />
              <mxPoint x="1404" y="87" />
            </Array>
          </mxGeometry>
        </mxCell>
        <mxCell id="cj0vS9jOyUDW4bIudi8N-30" value="If interseting Event, publish to Discord API" style="edgeLabel;html=1;align=center;verticalAlign=middle;resizable=0;points=[];fontStyle=1" vertex="1" connectable="0" parent="cj0vS9jOyUDW4bIudi8N-29">
          <mxGeometry x="0.351" y="-1" relative="1" as="geometry">
            <mxPoint y="1" as="offset" />
          </mxGeometry>
        </mxCell>
        <mxCell id="cj0vS9jOyUDW4bIudi8N-31" value="&lt;b&gt;Batches of 10&lt;/b&gt;" style="edgeStyle=orthogonalEdgeStyle;rounded=0;orthogonalLoop=1;jettySize=auto;html=1;entryX=0;entryY=0.5;entryDx=0;entryDy=0;entryPerimeter=0;" edge="1" parent="cj0vS9jOyUDW4bIudi8N-1" source="cj0vS9jOyUDW4bIudi8N-32" target="cj0vS9jOyUDW4bIudi8N-37">
          <mxGeometry relative="1" as="geometry" />
        </mxCell>
        <mxCell id="cj0vS9jOyUDW4bIudi8N-32" value="&lt;b&gt;PlayerMatchUpdate.fifo&lt;/b&gt;" style="sketch=0;points=[[0,0,0],[0.25,0,0],[0.5,0,0],[0.75,0,0],[1,0,0],[0,1,0],[0.25,1,0],[0.5,1,0],[0.75,1,0],[1,1,0],[0,0.25,0],[0,0.5,0],[0,0.75,0],[1,0.25,0],[1,0.5,0],[1,0.75,0]];outlineConnect=0;fontColor=#232F3E;gradientColor=#FF4F8B;gradientDirection=north;fillColor=#BC1356;strokeColor=#ffffff;dashed=0;verticalLabelPosition=bottom;verticalAlign=top;align=center;html=1;fontSize=12;fontStyle=0;aspect=fixed;shape=mxgraph.aws4.resourceIcon;resIcon=mxgraph.aws4.sqs;" vertex="1" parent="cj0vS9jOyUDW4bIudi8N-1">
          <mxGeometry x="1130" y="225" width="78" height="78" as="geometry" />
        </mxCell>
        <mxCell id="cj0vS9jOyUDW4bIudi8N-33" value="Sample message format: {&lt;br&gt;puuid:X,&lt;br&gt;matchDeatils:...}&lt;br&gt;&lt;br&gt;&lt;b&gt;GroupId will be PUUID, dedupId = matchId&lt;/b&gt;" style="shape=note;whiteSpace=wrap;html=1;backgroundOutline=1;darkOpacity=0.05;" vertex="1" parent="cj0vS9jOyUDW4bIudi8N-1">
          <mxGeometry x="1110" y="120" width="220" height="100" as="geometry" />
        </mxCell>
        <mxCell id="cj0vS9jOyUDW4bIudi8N-34" value="" style="sketch=0;points=[[0,0,0],[0.25,0,0],[0.5,0,0],[0.75,0,0],[1,0,0],[0,1,0],[0.25,1,0],[0.5,1,0],[0.75,1,0],[1,1,0],[0,0.25,0],[0,0.5,0],[0,0.75,0],[1,0.25,0],[1,0.5,0],[1,0.75,0]];outlineConnect=0;fontColor=#232F3E;gradientColor=#4D72F3;gradientDirection=north;fillColor=#3334B9;strokeColor=#ffffff;dashed=0;verticalLabelPosition=bottom;verticalAlign=top;align=center;html=1;fontSize=12;fontStyle=0;aspect=fixed;shape=mxgraph.aws4.resourceIcon;resIcon=mxgraph.aws4.dynamodb;" vertex="1" parent="cj0vS9jOyUDW4bIudi8N-1">
          <mxGeometry x="1890" y="231" width="78" height="78" as="geometry" />
        </mxCell>
        <mxCell id="cj0vS9jOyUDW4bIudi8N-36" value="&lt;b&gt;Discord API&lt;/b&gt;" style="outlineConnect=0;dashed=0;verticalLabelPosition=bottom;verticalAlign=top;align=center;html=1;shape=mxgraph.aws3.ec2;fillColor=#F58534;gradientColor=none;" vertex="1" parent="cj0vS9jOyUDW4bIudi8N-1">
          <mxGeometry x="1790" y="40" width="76.5" height="93" as="geometry" />
        </mxCell>
        <mxCell id="cj0vS9jOyUDW4bIudi8N-37" value="&lt;b&gt;Consumer&lt;/b&gt;" style="outlineConnect=0;dashed=0;verticalLabelPosition=bottom;verticalAlign=top;align=center;html=1;shape=mxgraph.aws3.lambda_function;fillColor=#F58534;gradientColor=none;" vertex="1" parent="cj0vS9jOyUDW4bIudi8N-1">
          <mxGeometry x="1311" y="231" width="69" height="72" as="geometry" />
        </mxCell>
        <mxCell id="cj0vS9jOyUDW4bIudi8N-38" value="&lt;b&gt;Will contain GSI on each: kills, assists, deaths, kda, winrate to allow ranking and leadership view&lt;/b&gt;" style="shape=note;whiteSpace=wrap;html=1;backgroundOutline=1;darkOpacity=0.05;" vertex="1" parent="cj0vS9jOyUDW4bIudi8N-1">
          <mxGeometry x="1840" y="330" width="220" height="100" as="geometry" />
        </mxCell>
        <mxCell id="_Rm2gR1SMqFmuvwYHthA-0" value="" style="sketch=0;points=[[0,0,0],[0.25,0,0],[0.5,0,0],[0.75,0,0],[1,0,0],[0,1,0],[0.25,1,0],[0.5,1,0],[0.75,1,0],[1,1,0],[0,0.25,0],[0,0.5,0],[0,0.75,0],[1,0.25,0],[1,0.5,0],[1,0.75,0]];outlineConnect=0;fontColor=#232F3E;gradientColor=#4D72F3;gradientDirection=north;fillColor=#3334B9;strokeColor=#ffffff;dashed=0;verticalLabelPosition=bottom;verticalAlign=top;align=center;html=1;fontSize=12;fontStyle=0;aspect=fixed;shape=mxgraph.aws4.resourceIcon;resIcon=mxgraph.aws4.dynamodb;" vertex="1" parent="cj0vS9jOyUDW4bIudi8N-1">
          <mxGeometry x="795.5" y="500" width="78" height="78" as="geometry" />
        </mxCell>
        <mxCell id="_Rm2gR1SMqFmuvwYHthA-3" value="Incase we had like 10 games for this player, we will only update latestScanneddGame once we finish querying all games and pushing to SQS, if failure happened message will go to DLQ, and after 5 minutes of redrive samem messages will again be processesd in fifo" style="shape=note;whiteSpace=wrap;html=1;backgroundOutline=1;darkOpacity=0.05;" vertex="1" parent="cj0vS9jOyUDW4bIudi8N-1">
          <mxGeometry x="890" y="430" width="340" height="148" as="geometry" />
        </mxCell>
      </root>
    </mxGraphModel>
  </diagram>
  <diagram name="prposal3" id="nDmKOy3mzLOQd3Pi8mih">
    <mxGraphModel dx="2257" dy="1944" grid="1" gridSize="10" guides="1" tooltips="1" connect="1" arrows="1" fold="1" page="1" pageScale="1" pageWidth="827" pageHeight="1169" math="0" shadow="0">
      <root>
        <mxCell id="8btrsYi-2ePveYZLV-yr-0" />
        <mxCell id="8btrsYi-2ePveYZLV-yr-1" parent="8btrsYi-2ePveYZLV-yr-0" />
        <mxCell id="8btrsYi-2ePveYZLV-yr-2" style="edgeStyle=orthogonalEdgeStyle;rounded=0;orthogonalLoop=1;jettySize=auto;html=1;entryX=0;entryY=0.5;entryDx=0;entryDy=0;entryPerimeter=0;" edge="1" parent="8btrsYi-2ePveYZLV-yr-1" source="8btrsYi-2ePveYZLV-yr-4" target="8btrsYi-2ePveYZLV-yr-14">
          <mxGeometry relative="1" as="geometry">
            <Array as="points">
              <mxPoint x="580" y="189" />
              <mxPoint x="580" y="271" />
            </Array>
          </mxGeometry>
        </mxCell>
        <mxCell id="8btrsYi-2ePveYZLV-yr-3" value="&lt;b&gt;2. Push each PUUID to queue&lt;/b&gt;" style="edgeLabel;html=1;align=center;verticalAlign=middle;resizable=0;points=[];" vertex="1" connectable="0" parent="8btrsYi-2ePveYZLV-yr-2">
          <mxGeometry x="0.2588" y="1" relative="1" as="geometry">
            <mxPoint as="offset" />
          </mxGeometry>
        </mxCell>
        <mxCell id="8btrsYi-2ePveYZLV-yr-4" value="&lt;b&gt;TrackerLambda1&lt;/b&gt;" style="outlineConnect=0;dashed=0;verticalLabelPosition=bottom;verticalAlign=top;align=center;html=1;shape=mxgraph.aws3.lambda_function;fillColor=#F58534;gradientColor=none;" vertex="1" parent="8btrsYi-2ePveYZLV-yr-1">
          <mxGeometry x="160" y="153" width="69" height="72" as="geometry" />
        </mxCell>
        <mxCell id="8btrsYi-2ePveYZLV-yr-5" style="edgeStyle=orthogonalEdgeStyle;rounded=0;orthogonalLoop=1;jettySize=auto;html=1;entryX=0;entryY=0.5;entryDx=0;entryDy=0;entryPerimeter=0;" edge="1" parent="8btrsYi-2ePveYZLV-yr-1" source="8btrsYi-2ePveYZLV-yr-6" target="8btrsYi-2ePveYZLV-yr-4">
          <mxGeometry relative="1" as="geometry" />
        </mxCell>
        <mxCell id="8btrsYi-2ePveYZLV-yr-6" value="&lt;b&gt;Event1&lt;/b&gt;" style="sketch=0;outlineConnect=0;fontColor=#232F3E;gradientColor=none;fillColor=#B0084D;strokeColor=none;dashed=0;verticalLabelPosition=bottom;verticalAlign=top;align=center;html=1;fontSize=12;fontStyle=0;aspect=fixed;pointerEvents=1;shape=mxgraph.aws4.event_time_based;" vertex="1" parent="8btrsYi-2ePveYZLV-yr-1">
          <mxGeometry x="-110" y="150" width="78" height="78" as="geometry" />
        </mxCell>
        <mxCell id="8btrsYi-2ePveYZLV-yr-7" style="edgeStyle=orthogonalEdgeStyle;rounded=0;orthogonalLoop=1;jettySize=auto;html=1;entryX=0;entryY=0.5;entryDx=0;entryDy=0;entryPerimeter=0;" edge="1" parent="8btrsYi-2ePveYZLV-yr-1" source="8btrsYi-2ePveYZLV-yr-9" target="8btrsYi-2ePveYZLV-yr-14">
          <mxGeometry relative="1" as="geometry">
            <Array as="points">
              <mxPoint x="430" y="349" />
              <mxPoint x="430" y="350" />
              <mxPoint x="580" y="350" />
              <mxPoint x="580" y="271" />
            </Array>
          </mxGeometry>
        </mxCell>
        <mxCell id="8btrsYi-2ePveYZLV-yr-8" value="&lt;b&gt;2. Push each PUUID to queue&lt;/b&gt;" style="edgeLabel;html=1;align=center;verticalAlign=middle;resizable=0;points=[];" vertex="1" connectable="0" parent="8btrsYi-2ePveYZLV-yr-7">
          <mxGeometry x="0.2848" y="-3" relative="1" as="geometry">
            <mxPoint as="offset" />
          </mxGeometry>
        </mxCell>
        <mxCell id="8btrsYi-2ePveYZLV-yr-9" value="&lt;b&gt;TrackerLambda2&lt;/b&gt;" style="outlineConnect=0;dashed=0;verticalLabelPosition=bottom;verticalAlign=top;align=center;html=1;shape=mxgraph.aws3.lambda_function;fillColor=#F58534;gradientColor=none;" vertex="1" parent="8btrsYi-2ePveYZLV-yr-1">
          <mxGeometry x="160" y="313" width="69" height="72" as="geometry" />
        </mxCell>
        <mxCell id="8btrsYi-2ePveYZLV-yr-10" style="edgeStyle=orthogonalEdgeStyle;rounded=0;orthogonalLoop=1;jettySize=auto;html=1;entryX=0;entryY=0.5;entryDx=0;entryDy=0;entryPerimeter=0;" edge="1" parent="8btrsYi-2ePveYZLV-yr-1" source="8btrsYi-2ePveYZLV-yr-11" target="8btrsYi-2ePveYZLV-yr-9">
          <mxGeometry relative="1" as="geometry" />
        </mxCell>
        <mxCell id="8btrsYi-2ePveYZLV-yr-11" value="&lt;b&gt;Event2&lt;/b&gt;" style="sketch=0;outlineConnect=0;fontColor=#232F3E;gradientColor=none;fillColor=#B0084D;strokeColor=none;dashed=0;verticalLabelPosition=bottom;verticalAlign=top;align=center;html=1;fontSize=12;fontStyle=0;aspect=fixed;pointerEvents=1;shape=mxgraph.aws4.event_time_based;" vertex="1" parent="8btrsYi-2ePveYZLV-yr-1">
          <mxGeometry x="-110" y="310" width="78" height="78" as="geometry" />
        </mxCell>
        <mxCell id="8btrsYi-2ePveYZLV-yr-12" value="" style="sketch=0;points=[[0,0,0],[0.25,0,0],[0.5,0,0],[0.75,0,0],[1,0,0],[0,1,0],[0.25,1,0],[0.5,1,0],[0.75,1,0],[1,1,0],[0,0.25,0],[0,0.5,0],[0,0.75,0],[1,0.25,0],[1,0.5,0],[1,0.75,0]];outlineConnect=0;fontColor=#232F3E;gradientColor=#4D72F3;gradientDirection=north;fillColor=#3334B9;strokeColor=#ffffff;dashed=0;verticalLabelPosition=bottom;verticalAlign=top;align=center;html=1;fontSize=12;fontStyle=0;aspect=fixed;shape=mxgraph.aws4.resourceIcon;resIcon=mxgraph.aws4.dynamodb;" vertex="1" parent="8btrsYi-2ePveYZLV-yr-1">
          <mxGeometry x="414" y="232" width="78" height="78" as="geometry" />
        </mxCell>
        <mxCell id="8btrsYi-2ePveYZLV-yr-13" style="edgeStyle=orthogonalEdgeStyle;rounded=0;orthogonalLoop=1;jettySize=auto;html=1;entryX=0;entryY=0.5;entryDx=0;entryDy=0;entryPerimeter=0;" edge="1" parent="8btrsYi-2ePveYZLV-yr-1" source="8btrsYi-2ePveYZLV-yr-14" target="8btrsYi-2ePveYZLV-yr-25">
          <mxGeometry relative="1" as="geometry" />
        </mxCell>
        <mxCell id="8btrsYi-2ePveYZLV-yr-14" value="&lt;b&gt;PlayersTrack&lt;/b&gt;" style="sketch=0;points=[[0,0,0],[0.25,0,0],[0.5,0,0],[0.75,0,0],[1,0,0],[0,1,0],[0.25,1,0],[0.5,1,0],[0.75,1,0],[1,1,0],[0,0.25,0],[0,0.5,0],[0,0.75,0],[1,0.25,0],[1,0.5,0],[1,0.75,0]];outlineConnect=0;fontColor=#232F3E;gradientColor=#FF4F8B;gradientDirection=north;fillColor=#BC1356;strokeColor=#ffffff;dashed=0;verticalLabelPosition=bottom;verticalAlign=top;align=center;html=1;fontSize=12;fontStyle=0;aspect=fixed;shape=mxgraph.aws4.resourceIcon;resIcon=mxgraph.aws4.sqs;" vertex="1" parent="8btrsYi-2ePveYZLV-yr-1">
          <mxGeometry x="630" y="232" width="78" height="78" as="geometry" />
        </mxCell>
        <mxCell id="8btrsYi-2ePveYZLV-yr-15" style="edgeStyle=orthogonalEdgeStyle;rounded=0;orthogonalLoop=1;jettySize=auto;html=1;entryX=0.5;entryY=1;entryDx=0;entryDy=0;entryPerimeter=0;" edge="1" parent="8btrsYi-2ePveYZLV-yr-1" source="8btrsYi-2ePveYZLV-yr-9" target="8btrsYi-2ePveYZLV-yr-12">
          <mxGeometry relative="1" as="geometry" />
        </mxCell>
        <mxCell id="8btrsYi-2ePveYZLV-yr-16" value="&lt;b&gt;1. Scan partition 2&lt;/b&gt;" style="edgeLabel;html=1;align=center;verticalAlign=middle;resizable=0;points=[];" vertex="1" connectable="0" parent="8btrsYi-2ePveYZLV-yr-15">
          <mxGeometry x="-0.2852" relative="1" as="geometry">
            <mxPoint as="offset" />
          </mxGeometry>
        </mxCell>
        <mxCell id="8btrsYi-2ePveYZLV-yr-17" style="edgeStyle=orthogonalEdgeStyle;rounded=0;orthogonalLoop=1;jettySize=auto;html=1;" edge="1" parent="8btrsYi-2ePveYZLV-yr-1" source="8btrsYi-2ePveYZLV-yr-4">
          <mxGeometry relative="1" as="geometry">
            <mxPoint x="450" y="230" as="targetPoint" />
          </mxGeometry>
        </mxCell>
        <mxCell id="8btrsYi-2ePveYZLV-yr-18" value="&lt;b&gt;1. Scan partition 1&lt;/b&gt;" style="edgeLabel;html=1;align=center;verticalAlign=middle;resizable=0;points=[];" vertex="1" connectable="0" parent="8btrsYi-2ePveYZLV-yr-17">
          <mxGeometry x="-0.3435" y="-2" relative="1" as="geometry">
            <mxPoint as="offset" />
          </mxGeometry>
        </mxCell>
        <mxCell id="8btrsYi-2ePveYZLV-yr-19" style="edgeStyle=orthogonalEdgeStyle;rounded=0;orthogonalLoop=1;jettySize=auto;html=1;entryX=0;entryY=0.5;entryDx=0;entryDy=0;entryPerimeter=0;" edge="1" parent="8btrsYi-2ePveYZLV-yr-1" source="8btrsYi-2ePveYZLV-yr-25" target="8btrsYi-2ePveYZLV-yr-27">
          <mxGeometry relative="1" as="geometry">
            <Array as="points">
              <mxPoint x="880" y="271" />
              <mxPoint x="880" y="27" />
              <mxPoint x="970" y="27" />
            </Array>
          </mxGeometry>
        </mxCell>
        <mxCell id="8btrsYi-2ePveYZLV-yr-20" value="1. get matches for puuid" style="edgeLabel;html=1;align=center;verticalAlign=middle;resizable=0;points=[];fontStyle=1" vertex="1" connectable="0" parent="8btrsYi-2ePveYZLV-yr-19">
          <mxGeometry x="0.2943" y="-1" relative="1" as="geometry">
            <mxPoint x="66" y="-1" as="offset" />
          </mxGeometry>
        </mxCell>
        <mxCell id="8btrsYi-2ePveYZLV-yr-21" style="edgeStyle=orthogonalEdgeStyle;rounded=0;orthogonalLoop=1;jettySize=auto;html=1;" edge="1" parent="8btrsYi-2ePveYZLV-yr-1" source="8btrsYi-2ePveYZLV-yr-25">
          <mxGeometry relative="1" as="geometry">
            <mxPoint x="1130" y="271" as="targetPoint" />
          </mxGeometry>
        </mxCell>
        <mxCell id="8btrsYi-2ePveYZLV-yr-22" value="&lt;b&gt;2. for each match, push without details&lt;/b&gt;" style="edgeLabel;html=1;align=center;verticalAlign=middle;resizable=0;points=[];" vertex="1" connectable="0" parent="8btrsYi-2ePveYZLV-yr-21">
          <mxGeometry x="-0.3716" y="-2" relative="1" as="geometry">
            <mxPoint x="49" y="-2" as="offset" />
          </mxGeometry>
        </mxCell>
        <mxCell id="8btrsYi-2ePveYZLV-yr-23" style="edgeStyle=orthogonalEdgeStyle;rounded=0;orthogonalLoop=1;jettySize=auto;html=1;entryX=0.5;entryY=0;entryDx=0;entryDy=0;entryPerimeter=0;" edge="1" parent="8btrsYi-2ePveYZLV-yr-1" source="8btrsYi-2ePveYZLV-yr-25" target="8btrsYi-2ePveYZLV-yr-39">
          <mxGeometry relative="1" as="geometry" />
        </mxCell>
        <mxCell id="8btrsYi-2ePveYZLV-yr-24" value="&lt;b&gt;getLatestTimeStamp&lt;/b&gt;" style="edgeLabel;html=1;align=center;verticalAlign=middle;resizable=0;points=[];" vertex="1" connectable="0" parent="8btrsYi-2ePveYZLV-yr-23">
          <mxGeometry x="-0.1206" y="2" relative="1" as="geometry">
            <mxPoint as="offset" />
          </mxGeometry>
        </mxCell>
        <mxCell id="8btrsYi-2ePveYZLV-yr-25" value="&lt;b&gt;Consumer&lt;/b&gt;" style="outlineConnect=0;dashed=0;verticalLabelPosition=bottom;verticalAlign=top;align=center;html=1;shape=mxgraph.aws3.lambda_function;fillColor=#F58534;gradientColor=none;" vertex="1" parent="8btrsYi-2ePveYZLV-yr-1">
          <mxGeometry x="800" y="235" width="69" height="72" as="geometry" />
        </mxCell>
        <mxCell id="8btrsYi-2ePveYZLV-yr-26" value="Sample message format: {puuid: 1231}" style="shape=note;whiteSpace=wrap;html=1;backgroundOutline=1;darkOpacity=0.05;" vertex="1" parent="8btrsYi-2ePveYZLV-yr-1">
          <mxGeometry x="630" y="100" width="220" height="110" as="geometry" />
        </mxCell>
        <mxCell id="8btrsYi-2ePveYZLV-yr-27" value="&lt;b&gt;RIOT APIs&lt;/b&gt;" style="outlineConnect=0;dashed=0;verticalLabelPosition=bottom;verticalAlign=top;align=center;html=1;shape=mxgraph.aws3.ec2;fillColor=#F58534;gradientColor=none;" vertex="1" parent="8btrsYi-2ePveYZLV-yr-1">
          <mxGeometry x="1060" y="-20" width="76.5" height="93" as="geometry" />
        </mxCell>
        <mxCell id="Sovn98zjDfCIAfjkaaVL-1" style="edgeStyle=orthogonalEdgeStyle;rounded=0;orthogonalLoop=1;jettySize=auto;html=1;entryX=0;entryY=0.5;entryDx=0;entryDy=0;entryPerimeter=0;" edge="1" parent="8btrsYi-2ePveYZLV-yr-1" source="8btrsYi-2ePveYZLV-yr-33" target="Sovn98zjDfCIAfjkaaVL-0">
          <mxGeometry relative="1" as="geometry" />
        </mxCell>
        <mxCell id="8btrsYi-2ePveYZLV-yr-33" value="&lt;b&gt;PlayerMatchUpdate&lt;/b&gt;" style="sketch=0;points=[[0,0,0],[0.25,0,0],[0.5,0,0],[0.75,0,0],[1,0,0],[0,1,0],[0.25,1,0],[0.5,1,0],[0.75,1,0],[1,1,0],[0,0.25,0],[0,0.5,0],[0,0.75,0],[1,0.25,0],[1,0.5,0],[1,0.75,0]];outlineConnect=0;fontColor=#232F3E;gradientColor=#FF4F8B;gradientDirection=north;fillColor=#BC1356;strokeColor=#ffffff;dashed=0;verticalLabelPosition=bottom;verticalAlign=top;align=center;html=1;fontSize=12;fontStyle=0;aspect=fixed;shape=mxgraph.aws4.resourceIcon;resIcon=mxgraph.aws4.sqs;" vertex="1" parent="8btrsYi-2ePveYZLV-yr-1">
          <mxGeometry x="1130" y="225" width="78" height="78" as="geometry" />
        </mxCell>
        <mxCell id="8btrsYi-2ePveYZLV-yr-39" value="" style="sketch=0;points=[[0,0,0],[0.25,0,0],[0.5,0,0],[0.75,0,0],[1,0,0],[0,1,0],[0.25,1,0],[0.5,1,0],[0.75,1,0],[1,1,0],[0,0.25,0],[0,0.5,0],[0,0.75,0],[1,0.25,0],[1,0.5,0],[1,0.75,0]];outlineConnect=0;fontColor=#232F3E;gradientColor=#4D72F3;gradientDirection=north;fillColor=#3334B9;strokeColor=#ffffff;dashed=0;verticalLabelPosition=bottom;verticalAlign=top;align=center;html=1;fontSize=12;fontStyle=0;aspect=fixed;shape=mxgraph.aws4.resourceIcon;resIcon=mxgraph.aws4.dynamodb;" vertex="1" parent="8btrsYi-2ePveYZLV-yr-1">
          <mxGeometry x="795.5" y="500" width="78" height="78" as="geometry" />
        </mxCell>
        <mxCell id="Sovn98zjDfCIAfjkaaVL-3" style="edgeStyle=orthogonalEdgeStyle;rounded=0;orthogonalLoop=1;jettySize=auto;html=1;entryX=1;entryY=0.5;entryDx=0;entryDy=0;entryPerimeter=0;" edge="1" parent="8btrsYi-2ePveYZLV-yr-1" source="Sovn98zjDfCIAfjkaaVL-0" target="8btrsYi-2ePveYZLV-yr-27">
          <mxGeometry relative="1" as="geometry">
            <Array as="points">
              <mxPoint x="1395" y="26" />
            </Array>
          </mxGeometry>
        </mxCell>
        <mxCell id="Sovn98zjDfCIAfjkaaVL-4" value="&lt;b&gt;getMmatchDetails&lt;/b&gt;" style="edgeLabel;html=1;align=center;verticalAlign=middle;resizable=0;points=[];" vertex="1" connectable="0" parent="Sovn98zjDfCIAfjkaaVL-3">
          <mxGeometry x="0.3174" y="3" relative="1" as="geometry">
            <mxPoint x="-13" y="-3" as="offset" />
          </mxGeometry>
        </mxCell>
        <mxCell id="Sovn98zjDfCIAfjkaaVL-5" value="&lt;b&gt;updateLatestTimeStamp&lt;/b&gt;" style="edgeStyle=orthogonalEdgeStyle;rounded=0;orthogonalLoop=1;jettySize=auto;html=1;" edge="1" parent="8btrsYi-2ePveYZLV-yr-1" source="Sovn98zjDfCIAfjkaaVL-0">
          <mxGeometry relative="1" as="geometry">
            <mxPoint x="1394.4999999999995" y="460" as="targetPoint" />
          </mxGeometry>
        </mxCell>
        <mxCell id="Sovn98zjDfCIAfjkaaVL-9" style="edgeStyle=orthogonalEdgeStyle;rounded=0;orthogonalLoop=1;jettySize=auto;html=1;" edge="1" parent="8btrsYi-2ePveYZLV-yr-1" source="Sovn98zjDfCIAfjkaaVL-0">
          <mxGeometry relative="1" as="geometry">
            <mxPoint x="1570" y="264" as="targetPoint" />
          </mxGeometry>
        </mxCell>
        <mxCell id="Sovn98zjDfCIAfjkaaVL-0" value="&lt;b&gt;Consumer&lt;/b&gt;" style="outlineConnect=0;dashed=0;verticalLabelPosition=bottom;verticalAlign=top;align=center;html=1;shape=mxgraph.aws3.lambda_function;fillColor=#F58534;gradientColor=none;" vertex="1" parent="8btrsYi-2ePveYZLV-yr-1">
          <mxGeometry x="1360" y="228" width="69" height="72" as="geometry" />
        </mxCell>
        <mxCell id="Sovn98zjDfCIAfjkaaVL-6" value="" style="sketch=0;points=[[0,0,0],[0.25,0,0],[0.5,0,0],[0.75,0,0],[1,0,0],[0,1,0],[0.25,1,0],[0.5,1,0],[0.75,1,0],[1,1,0],[0,0.25,0],[0,0.5,0],[0,0.75,0],[1,0.25,0],[1,0.5,0],[1,0.75,0]];outlineConnect=0;fontColor=#232F3E;gradientColor=#4D72F3;gradientDirection=north;fillColor=#3334B9;strokeColor=#ffffff;dashed=0;verticalLabelPosition=bottom;verticalAlign=top;align=center;html=1;fontSize=12;fontStyle=0;aspect=fixed;shape=mxgraph.aws4.resourceIcon;resIcon=mxgraph.aws4.dynamodb;" vertex="1" parent="8btrsYi-2ePveYZLV-yr-1">
          <mxGeometry x="1355.5" y="460" width="78" height="78" as="geometry" />
        </mxCell>
        <mxCell id="Sovn98zjDfCIAfjkaaVL-12" style="edgeStyle=orthogonalEdgeStyle;rounded=0;orthogonalLoop=1;jettySize=auto;html=1;entryX=0;entryY=0.5;entryDx=0;entryDy=0;entryPerimeter=0;" edge="1" parent="8btrsYi-2ePveYZLV-yr-1" source="Sovn98zjDfCIAfjkaaVL-10" target="Sovn98zjDfCIAfjkaaVL-11">
          <mxGeometry relative="1" as="geometry" />
        </mxCell>
        <mxCell id="Sovn98zjDfCIAfjkaaVL-10" value="&lt;b&gt;PlayerMatchInfo.fifo&lt;/b&gt;" style="sketch=0;points=[[0,0,0],[0.25,0,0],[0.5,0,0],[0.75,0,0],[1,0,0],[0,1,0],[0.25,1,0],[0.5,1,0],[0.75,1,0],[1,1,0],[0,0.25,0],[0,0.5,0],[0,0.75,0],[1,0.25,0],[1,0.5,0],[1,0.75,0]];outlineConnect=0;fontColor=#232F3E;gradientColor=#FF4F8B;gradientDirection=north;fillColor=#BC1356;strokeColor=#ffffff;dashed=0;verticalLabelPosition=bottom;verticalAlign=top;align=center;html=1;fontSize=12;fontStyle=0;aspect=fixed;shape=mxgraph.aws4.resourceIcon;resIcon=mxgraph.aws4.sqs;" vertex="1" parent="8btrsYi-2ePveYZLV-yr-1">
          <mxGeometry x="1570" y="222" width="78" height="78" as="geometry" />
        </mxCell>
        <mxCell id="Sovn98zjDfCIAfjkaaVL-14" value="&lt;b&gt;update stats&lt;/b&gt;" style="edgeStyle=orthogonalEdgeStyle;rounded=0;orthogonalLoop=1;jettySize=auto;html=1;entryX=0.5;entryY=0;entryDx=0;entryDy=0;entryPerimeter=0;" edge="1" parent="8btrsYi-2ePveYZLV-yr-1" source="Sovn98zjDfCIAfjkaaVL-11" target="Sovn98zjDfCIAfjkaaVL-13">
          <mxGeometry relative="1" as="geometry" />
        </mxCell>
        <mxCell id="Sovn98zjDfCIAfjkaaVL-15" style="edgeStyle=orthogonalEdgeStyle;rounded=0;orthogonalLoop=1;jettySize=auto;html=1;entryX=0;entryY=0.5;entryDx=0;entryDy=0;entryPerimeter=0;" edge="1" parent="8btrsYi-2ePveYZLV-yr-1" source="Sovn98zjDfCIAfjkaaVL-11" target="Sovn98zjDfCIAfjkaaVL-16">
          <mxGeometry relative="1" as="geometry">
            <mxPoint x="2060" y="110" as="targetPoint" />
          </mxGeometry>
        </mxCell>
        <mxCell id="Sovn98zjDfCIAfjkaaVL-11" value="&lt;b&gt;Consumer&lt;/b&gt;" style="outlineConnect=0;dashed=0;verticalLabelPosition=bottom;verticalAlign=top;align=center;html=1;shape=mxgraph.aws3.lambda_function;fillColor=#F58534;gradientColor=none;" vertex="1" parent="8btrsYi-2ePveYZLV-yr-1">
          <mxGeometry x="1810" y="225" width="69" height="72" as="geometry" />
        </mxCell>
        <mxCell id="Sovn98zjDfCIAfjkaaVL-13" value="" style="sketch=0;points=[[0,0,0],[0.25,0,0],[0.5,0,0],[0.75,0,0],[1,0,0],[0,1,0],[0.25,1,0],[0.5,1,0],[0.75,1,0],[1,1,0],[0,0.25,0],[0,0.5,0],[0,0.75,0],[1,0.25,0],[1,0.5,0],[1,0.75,0]];outlineConnect=0;fontColor=#232F3E;gradientColor=#4D72F3;gradientDirection=north;fillColor=#3334B9;strokeColor=#ffffff;dashed=0;verticalLabelPosition=bottom;verticalAlign=top;align=center;html=1;fontSize=12;fontStyle=0;aspect=fixed;shape=mxgraph.aws4.resourceIcon;resIcon=mxgraph.aws4.dynamodb;" vertex="1" parent="8btrsYi-2ePveYZLV-yr-1">
          <mxGeometry x="1805.5" y="450" width="78" height="78" as="geometry" />
        </mxCell>
        <mxCell id="Sovn98zjDfCIAfjkaaVL-16" value="&lt;b&gt;Discord API&lt;/b&gt;" style="outlineConnect=0;dashed=0;verticalLabelPosition=bottom;verticalAlign=top;align=center;html=1;shape=mxgraph.aws3.ec2;fillColor=#F58534;gradientColor=none;" vertex="1" parent="8btrsYi-2ePveYZLV-yr-1">
          <mxGeometry x="2080" y="60" width="76.5" height="93" as="geometry" />
        </mxCell>
        <mxCell id="Sovn98zjDfCIAfjkaaVL-17" value="&lt;b&gt;incase old timestamp failed and modern succeeded, old will never work after retry&lt;/b&gt;" style="shape=note;whiteSpace=wrap;html=1;backgroundOutline=1;darkOpacity=0.05;" vertex="1" parent="8btrsYi-2ePveYZLV-yr-1">
          <mxGeometry x="1440" y="428" width="220" height="110" as="geometry" />
        </mxCell>
      </root>
    </mxGraphModel>
  </diagram>
  <diagram name="proposal4" id="BUplgMO4aArSv2tt_awy">
    <mxGraphModel dx="2555" dy="2106" grid="1" gridSize="10" guides="1" tooltips="1" connect="1" arrows="1" fold="1" page="1" pageScale="1" pageWidth="827" pageHeight="1169" math="0" shadow="0">
      <root>
        <mxCell id="_-2gbWzzhIHMMazekIv1-0" />
        <mxCell id="_-2gbWzzhIHMMazekIv1-1" parent="_-2gbWzzhIHMMazekIv1-0" />
        <mxCell id="lri0NUBL9oFHGYHDJe4F-0" style="edgeStyle=orthogonalEdgeStyle;rounded=0;orthogonalLoop=1;jettySize=auto;html=1;entryX=0;entryY=0.5;entryDx=0;entryDy=0;entryPerimeter=0;" edge="1" parent="_-2gbWzzhIHMMazekIv1-1" source="lri0NUBL9oFHGYHDJe4F-2" target="lri0NUBL9oFHGYHDJe4F-12">
          <mxGeometry relative="1" as="geometry">
            <Array as="points">
              <mxPoint x="580" y="189" />
              <mxPoint x="580" y="271" />
            </Array>
          </mxGeometry>
        </mxCell>
        <mxCell id="lri0NUBL9oFHGYHDJe4F-1" value="&lt;b&gt;2. Push each PUUID to queue&lt;/b&gt;" style="edgeLabel;html=1;align=center;verticalAlign=middle;resizable=0;points=[];" vertex="1" connectable="0" parent="lri0NUBL9oFHGYHDJe4F-0">
          <mxGeometry x="0.2588" y="1" relative="1" as="geometry">
            <mxPoint as="offset" />
          </mxGeometry>
        </mxCell>
        <mxCell id="lri0NUBL9oFHGYHDJe4F-2" value="&lt;b&gt;TrackerLambda1&lt;/b&gt;" style="outlineConnect=0;dashed=0;verticalLabelPosition=bottom;verticalAlign=top;align=center;html=1;shape=mxgraph.aws3.lambda_function;fillColor=#F58534;gradientColor=none;" vertex="1" parent="_-2gbWzzhIHMMazekIv1-1">
          <mxGeometry x="160" y="153" width="69" height="72" as="geometry" />
        </mxCell>
        <mxCell id="lri0NUBL9oFHGYHDJe4F-3" style="edgeStyle=orthogonalEdgeStyle;rounded=0;orthogonalLoop=1;jettySize=auto;html=1;entryX=0;entryY=0.5;entryDx=0;entryDy=0;entryPerimeter=0;" edge="1" parent="_-2gbWzzhIHMMazekIv1-1" source="lri0NUBL9oFHGYHDJe4F-4" target="lri0NUBL9oFHGYHDJe4F-2">
          <mxGeometry relative="1" as="geometry" />
        </mxCell>
        <mxCell id="lri0NUBL9oFHGYHDJe4F-4" value="&lt;b&gt;Event1&lt;/b&gt;" style="sketch=0;outlineConnect=0;fontColor=#232F3E;gradientColor=none;fillColor=#B0084D;strokeColor=none;dashed=0;verticalLabelPosition=bottom;verticalAlign=top;align=center;html=1;fontSize=12;fontStyle=0;aspect=fixed;pointerEvents=1;shape=mxgraph.aws4.event_time_based;" vertex="1" parent="_-2gbWzzhIHMMazekIv1-1">
          <mxGeometry x="-110" y="150" width="78" height="78" as="geometry" />
        </mxCell>
        <mxCell id="lri0NUBL9oFHGYHDJe4F-5" style="edgeStyle=orthogonalEdgeStyle;rounded=0;orthogonalLoop=1;jettySize=auto;html=1;entryX=0;entryY=0.5;entryDx=0;entryDy=0;entryPerimeter=0;" edge="1" parent="_-2gbWzzhIHMMazekIv1-1" source="lri0NUBL9oFHGYHDJe4F-7" target="lri0NUBL9oFHGYHDJe4F-12">
          <mxGeometry relative="1" as="geometry">
            <Array as="points">
              <mxPoint x="430" y="349" />
              <mxPoint x="430" y="350" />
              <mxPoint x="580" y="350" />
              <mxPoint x="580" y="271" />
            </Array>
          </mxGeometry>
        </mxCell>
        <mxCell id="lri0NUBL9oFHGYHDJe4F-6" value="&lt;b&gt;2. Push each PUUID to queue&lt;/b&gt;" style="edgeLabel;html=1;align=center;verticalAlign=middle;resizable=0;points=[];" vertex="1" connectable="0" parent="lri0NUBL9oFHGYHDJe4F-5">
          <mxGeometry x="0.2848" y="-3" relative="1" as="geometry">
            <mxPoint as="offset" />
          </mxGeometry>
        </mxCell>
        <mxCell id="lri0NUBL9oFHGYHDJe4F-7" value="&lt;b&gt;TrackerLambda2&lt;/b&gt;" style="outlineConnect=0;dashed=0;verticalLabelPosition=bottom;verticalAlign=top;align=center;html=1;shape=mxgraph.aws3.lambda_function;fillColor=#F58534;gradientColor=none;" vertex="1" parent="_-2gbWzzhIHMMazekIv1-1">
          <mxGeometry x="160" y="313" width="69" height="72" as="geometry" />
        </mxCell>
        <mxCell id="lri0NUBL9oFHGYHDJe4F-8" style="edgeStyle=orthogonalEdgeStyle;rounded=0;orthogonalLoop=1;jettySize=auto;html=1;entryX=0;entryY=0.5;entryDx=0;entryDy=0;entryPerimeter=0;" edge="1" parent="_-2gbWzzhIHMMazekIv1-1" source="lri0NUBL9oFHGYHDJe4F-9" target="lri0NUBL9oFHGYHDJe4F-7">
          <mxGeometry relative="1" as="geometry" />
        </mxCell>
        <mxCell id="lri0NUBL9oFHGYHDJe4F-9" value="&lt;b&gt;Event2&lt;/b&gt;" style="sketch=0;outlineConnect=0;fontColor=#232F3E;gradientColor=none;fillColor=#B0084D;strokeColor=none;dashed=0;verticalLabelPosition=bottom;verticalAlign=top;align=center;html=1;fontSize=12;fontStyle=0;aspect=fixed;pointerEvents=1;shape=mxgraph.aws4.event_time_based;" vertex="1" parent="_-2gbWzzhIHMMazekIv1-1">
          <mxGeometry x="-110" y="310" width="78" height="78" as="geometry" />
        </mxCell>
        <mxCell id="lri0NUBL9oFHGYHDJe4F-10" value="" style="sketch=0;points=[[0,0,0],[0.25,0,0],[0.5,0,0],[0.75,0,0],[1,0,0],[0,1,0],[0.25,1,0],[0.5,1,0],[0.75,1,0],[1,1,0],[0,0.25,0],[0,0.5,0],[0,0.75,0],[1,0.25,0],[1,0.5,0],[1,0.75,0]];outlineConnect=0;fontColor=#232F3E;gradientColor=#4D72F3;gradientDirection=north;fillColor=#3334B9;strokeColor=#ffffff;dashed=0;verticalLabelPosition=bottom;verticalAlign=top;align=center;html=1;fontSize=12;fontStyle=0;aspect=fixed;shape=mxgraph.aws4.resourceIcon;resIcon=mxgraph.aws4.dynamodb;" vertex="1" parent="_-2gbWzzhIHMMazekIv1-1">
          <mxGeometry x="414" y="232" width="78" height="78" as="geometry" />
        </mxCell>
        <mxCell id="lri0NUBL9oFHGYHDJe4F-11" style="edgeStyle=orthogonalEdgeStyle;rounded=0;orthogonalLoop=1;jettySize=auto;html=1;entryX=0;entryY=0.5;entryDx=0;entryDy=0;entryPerimeter=0;" edge="1" parent="_-2gbWzzhIHMMazekIv1-1" source="lri0NUBL9oFHGYHDJe4F-12" target="lri0NUBL9oFHGYHDJe4F-23">
          <mxGeometry relative="1" as="geometry" />
        </mxCell>
        <mxCell id="lri0NUBL9oFHGYHDJe4F-12" value="&lt;b&gt;PlayersTrack&lt;/b&gt;" style="sketch=0;points=[[0,0,0],[0.25,0,0],[0.5,0,0],[0.75,0,0],[1,0,0],[0,1,0],[0.25,1,0],[0.5,1,0],[0.75,1,0],[1,1,0],[0,0.25,0],[0,0.5,0],[0,0.75,0],[1,0.25,0],[1,0.5,0],[1,0.75,0]];outlineConnect=0;fontColor=#232F3E;gradientColor=#FF4F8B;gradientDirection=north;fillColor=#BC1356;strokeColor=#ffffff;dashed=0;verticalLabelPosition=bottom;verticalAlign=top;align=center;html=1;fontSize=12;fontStyle=0;aspect=fixed;shape=mxgraph.aws4.resourceIcon;resIcon=mxgraph.aws4.sqs;" vertex="1" parent="_-2gbWzzhIHMMazekIv1-1">
          <mxGeometry x="630" y="232" width="78" height="78" as="geometry" />
        </mxCell>
        <mxCell id="lri0NUBL9oFHGYHDJe4F-13" style="edgeStyle=orthogonalEdgeStyle;rounded=0;orthogonalLoop=1;jettySize=auto;html=1;entryX=0.5;entryY=1;entryDx=0;entryDy=0;entryPerimeter=0;" edge="1" parent="_-2gbWzzhIHMMazekIv1-1" source="lri0NUBL9oFHGYHDJe4F-7" target="lri0NUBL9oFHGYHDJe4F-10">
          <mxGeometry relative="1" as="geometry" />
        </mxCell>
        <mxCell id="lri0NUBL9oFHGYHDJe4F-14" value="&lt;b&gt;1. Scan partition 2&lt;/b&gt;" style="edgeLabel;html=1;align=center;verticalAlign=middle;resizable=0;points=[];" vertex="1" connectable="0" parent="lri0NUBL9oFHGYHDJe4F-13">
          <mxGeometry x="-0.2852" relative="1" as="geometry">
            <mxPoint as="offset" />
          </mxGeometry>
        </mxCell>
        <mxCell id="lri0NUBL9oFHGYHDJe4F-15" style="edgeStyle=orthogonalEdgeStyle;rounded=0;orthogonalLoop=1;jettySize=auto;html=1;" edge="1" parent="_-2gbWzzhIHMMazekIv1-1" source="lri0NUBL9oFHGYHDJe4F-2">
          <mxGeometry relative="1" as="geometry">
            <mxPoint x="450" y="230" as="targetPoint" />
          </mxGeometry>
        </mxCell>
        <mxCell id="lri0NUBL9oFHGYHDJe4F-16" value="&lt;b&gt;1. Scan partition 1&lt;/b&gt;" style="edgeLabel;html=1;align=center;verticalAlign=middle;resizable=0;points=[];" vertex="1" connectable="0" parent="lri0NUBL9oFHGYHDJe4F-15">
          <mxGeometry x="-0.3435" y="-2" relative="1" as="geometry">
            <mxPoint as="offset" />
          </mxGeometry>
        </mxCell>
        <mxCell id="lri0NUBL9oFHGYHDJe4F-17" style="edgeStyle=orthogonalEdgeStyle;rounded=0;orthogonalLoop=1;jettySize=auto;html=1;entryX=0;entryY=0.5;entryDx=0;entryDy=0;entryPerimeter=0;" edge="1" parent="_-2gbWzzhIHMMazekIv1-1" source="lri0NUBL9oFHGYHDJe4F-23" target="lri0NUBL9oFHGYHDJe4F-25">
          <mxGeometry relative="1" as="geometry">
            <Array as="points">
              <mxPoint x="880" y="271" />
              <mxPoint x="880" y="27" />
              <mxPoint x="970" y="27" />
            </Array>
          </mxGeometry>
        </mxCell>
        <mxCell id="lri0NUBL9oFHGYHDJe4F-18" value="1. get matches for puuid" style="edgeLabel;html=1;align=center;verticalAlign=middle;resizable=0;points=[];fontStyle=1" vertex="1" connectable="0" parent="lri0NUBL9oFHGYHDJe4F-17">
          <mxGeometry x="0.2943" y="-1" relative="1" as="geometry">
            <mxPoint x="66" y="-1" as="offset" />
          </mxGeometry>
        </mxCell>
        <mxCell id="lri0NUBL9oFHGYHDJe4F-19" style="edgeStyle=orthogonalEdgeStyle;rounded=0;orthogonalLoop=1;jettySize=auto;html=1;entryX=0;entryY=0.5;entryDx=0;entryDy=0;entryPerimeter=0;" edge="1" parent="_-2gbWzzhIHMMazekIv1-1" source="lri0NUBL9oFHGYHDJe4F-23" target="lri0NUBL9oFHGYHDJe4F-27">
          <mxGeometry relative="1" as="geometry">
            <mxPoint x="1130" y="271" as="targetPoint" />
            <Array as="points">
              <mxPoint x="1010" y="271" />
              <mxPoint x="1010" y="270" />
              <mxPoint x="1150" y="270" />
              <mxPoint x="1150" y="264" />
            </Array>
          </mxGeometry>
        </mxCell>
        <mxCell id="lri0NUBL9oFHGYHDJe4F-20" value="&lt;b&gt;&lt;font color=&quot;#33001a&quot;&gt;2. push filtered messages as batch&amp;nbsp; (max 10)&lt;/font&gt;&lt;/b&gt;" style="edgeLabel;html=1;align=center;verticalAlign=middle;resizable=0;points=[];" vertex="1" connectable="0" parent="lri0NUBL9oFHGYHDJe4F-19">
          <mxGeometry x="-0.3716" y="-2" relative="1" as="geometry">
            <mxPoint x="49" y="-2" as="offset" />
          </mxGeometry>
        </mxCell>
        <mxCell id="lri0NUBL9oFHGYHDJe4F-21" style="edgeStyle=orthogonalEdgeStyle;rounded=0;orthogonalLoop=1;jettySize=auto;html=1;entryX=0.5;entryY=0;entryDx=0;entryDy=0;entryPerimeter=0;" edge="1" parent="_-2gbWzzhIHMMazekIv1-1" source="lri0NUBL9oFHGYHDJe4F-23" target="lri0NUBL9oFHGYHDJe4F-28">
          <mxGeometry relative="1" as="geometry" />
        </mxCell>
        <mxCell id="lri0NUBL9oFHGYHDJe4F-22" value="&lt;b&gt;3. updateLatestTimeStamp&lt;/b&gt;" style="edgeLabel;html=1;align=center;verticalAlign=middle;resizable=0;points=[];" vertex="1" connectable="0" parent="lri0NUBL9oFHGYHDJe4F-21">
          <mxGeometry x="-0.1206" y="2" relative="1" as="geometry">
            <mxPoint as="offset" />
          </mxGeometry>
        </mxCell>
        <mxCell id="lri0NUBL9oFHGYHDJe4F-23" value="&lt;b&gt;Consumer&lt;/b&gt;" style="outlineConnect=0;dashed=0;verticalLabelPosition=bottom;verticalAlign=top;align=center;html=1;shape=mxgraph.aws3.lambda_function;fillColor=#F58534;gradientColor=none;" vertex="1" parent="_-2gbWzzhIHMMazekIv1-1">
          <mxGeometry x="800" y="235" width="69" height="72" as="geometry" />
        </mxCell>
        <mxCell id="lri0NUBL9oFHGYHDJe4F-24" value="Sample message format: {puuid: 1231, lastScannedMatchTimeStamp: 784}" style="shape=note;whiteSpace=wrap;html=1;backgroundOutline=1;darkOpacity=0.05;" vertex="1" parent="_-2gbWzzhIHMMazekIv1-1">
          <mxGeometry x="630" y="100" width="220" height="110" as="geometry" />
        </mxCell>
        <mxCell id="lri0NUBL9oFHGYHDJe4F-25" value="&lt;b&gt;RIOT APIs&lt;/b&gt;" style="outlineConnect=0;dashed=0;verticalLabelPosition=bottom;verticalAlign=top;align=center;html=1;shape=mxgraph.aws3.ec2;fillColor=#F58534;gradientColor=none;" vertex="1" parent="_-2gbWzzhIHMMazekIv1-1">
          <mxGeometry x="1060" y="-20" width="76.5" height="93" as="geometry" />
        </mxCell>
        <mxCell id="lri0NUBL9oFHGYHDJe4F-26" value="&lt;b&gt;batches of 1&lt;/b&gt;" style="edgeStyle=orthogonalEdgeStyle;rounded=0;orthogonalLoop=1;jettySize=auto;html=1;entryX=0;entryY=0.5;entryDx=0;entryDy=0;entryPerimeter=0;" edge="1" parent="_-2gbWzzhIHMMazekIv1-1" source="lri0NUBL9oFHGYHDJe4F-27" target="lri0NUBL9oFHGYHDJe4F-33">
          <mxGeometry relative="1" as="geometry" />
        </mxCell>
        <mxCell id="lri0NUBL9oFHGYHDJe4F-27" value="&lt;b&gt;PlayerMatchUpdate.fifo&lt;/b&gt;" style="sketch=0;points=[[0,0,0],[0.25,0,0],[0.5,0,0],[0.75,0,0],[1,0,0],[0,1,0],[0.25,1,0],[0.5,1,0],[0.75,1,0],[1,1,0],[0,0.25,0],[0,0.5,0],[0,0.75,0],[1,0.25,0],[1,0.5,0],[1,0.75,0]];outlineConnect=0;fontColor=#232F3E;gradientColor=#FF4F8B;gradientDirection=north;fillColor=#BC1356;strokeColor=#ffffff;dashed=0;verticalLabelPosition=bottom;verticalAlign=top;align=center;html=1;fontSize=12;fontStyle=0;aspect=fixed;shape=mxgraph.aws4.resourceIcon;resIcon=mxgraph.aws4.sqs;" vertex="1" parent="_-2gbWzzhIHMMazekIv1-1">
          <mxGeometry x="1162" y="225" width="78" height="78" as="geometry" />
        </mxCell>
        <mxCell id="lri0NUBL9oFHGYHDJe4F-28" value="" style="sketch=0;points=[[0,0,0],[0.25,0,0],[0.5,0,0],[0.75,0,0],[1,0,0],[0,1,0],[0.25,1,0],[0.5,1,0],[0.75,1,0],[1,1,0],[0,0.25,0],[0,0.5,0],[0,0.75,0],[1,0.25,0],[1,0.5,0],[1,0.75,0]];outlineConnect=0;fontColor=#232F3E;gradientColor=#4D72F3;gradientDirection=north;fillColor=#3334B9;strokeColor=#ffffff;dashed=0;verticalLabelPosition=bottom;verticalAlign=top;align=center;html=1;fontSize=12;fontStyle=0;aspect=fixed;shape=mxgraph.aws4.resourceIcon;resIcon=mxgraph.aws4.dynamodb;" vertex="1" parent="_-2gbWzzhIHMMazekIv1-1">
          <mxGeometry x="795.5" y="500" width="78" height="78" as="geometry" />
        </mxCell>
        <mxCell id="lri0NUBL9oFHGYHDJe4F-29" style="edgeStyle=orthogonalEdgeStyle;rounded=0;orthogonalLoop=1;jettySize=auto;html=1;entryX=1;entryY=0.5;entryDx=0;entryDy=0;entryPerimeter=0;" edge="1" parent="_-2gbWzzhIHMMazekIv1-1" source="lri0NUBL9oFHGYHDJe4F-33" target="lri0NUBL9oFHGYHDJe4F-25">
          <mxGeometry relative="1" as="geometry">
            <Array as="points">
              <mxPoint x="1395" y="26" />
            </Array>
          </mxGeometry>
        </mxCell>
        <mxCell id="lri0NUBL9oFHGYHDJe4F-30" value="&lt;b&gt;getMmatchDetails&lt;/b&gt;" style="edgeLabel;html=1;align=center;verticalAlign=middle;resizable=0;points=[];" vertex="1" connectable="0" parent="lri0NUBL9oFHGYHDJe4F-29">
          <mxGeometry x="0.3174" y="3" relative="1" as="geometry">
            <mxPoint x="-13" y="-3" as="offset" />
          </mxGeometry>
        </mxCell>
        <mxCell id="lri0NUBL9oFHGYHDJe4F-32" style="edgeStyle=orthogonalEdgeStyle;rounded=0;orthogonalLoop=1;jettySize=auto;html=1;" edge="1" parent="_-2gbWzzhIHMMazekIv1-1" source="lri0NUBL9oFHGYHDJe4F-33">
          <mxGeometry relative="1" as="geometry">
            <mxPoint x="1570" y="264" as="targetPoint" />
          </mxGeometry>
        </mxCell>
        <mxCell id="017BgijWfvKQz7ERJaGF-3" value="&lt;b&gt;push match details&lt;/b&gt;" style="edgeLabel;html=1;align=center;verticalAlign=middle;resizable=0;points=[];fontColor=#000000;" vertex="1" connectable="0" parent="lri0NUBL9oFHGYHDJe4F-32">
          <mxGeometry x="-0.1702" y="1" relative="1" as="geometry">
            <mxPoint x="13" y="1" as="offset" />
          </mxGeometry>
        </mxCell>
        <mxCell id="lri0NUBL9oFHGYHDJe4F-33" value="&lt;b&gt;Consumer&lt;/b&gt;" style="outlineConnect=0;dashed=0;verticalLabelPosition=bottom;verticalAlign=top;align=center;html=1;shape=mxgraph.aws3.lambda_function;fillColor=#F58534;gradientColor=none;" vertex="1" parent="_-2gbWzzhIHMMazekIv1-1">
          <mxGeometry x="1360" y="228" width="69" height="72" as="geometry" />
        </mxCell>
        <mxCell id="lri0NUBL9oFHGYHDJe4F-35" style="edgeStyle=orthogonalEdgeStyle;rounded=0;orthogonalLoop=1;jettySize=auto;html=1;entryX=0;entryY=0.5;entryDx=0;entryDy=0;entryPerimeter=0;" edge="1" parent="_-2gbWzzhIHMMazekIv1-1" source="lri0NUBL9oFHGYHDJe4F-36" target="lri0NUBL9oFHGYHDJe4F-39">
          <mxGeometry relative="1" as="geometry" />
        </mxCell>
        <mxCell id="017BgijWfvKQz7ERJaGF-2" value="&lt;b style=&quot;border-color: var(--border-color); color: rgb(0, 117, 35);&quot;&gt;&lt;font style=&quot;border-color: var(--border-color);&quot; color=&quot;#000000&quot;&gt;batches of 10&lt;/font&gt;&lt;/b&gt;" style="edgeLabel;html=1;align=center;verticalAlign=middle;resizable=0;points=[];fontColor=#000000;" vertex="1" connectable="0" parent="lri0NUBL9oFHGYHDJe4F-35">
          <mxGeometry x="-0.2346" relative="1" as="geometry">
            <mxPoint x="20" as="offset" />
          </mxGeometry>
        </mxCell>
        <mxCell id="lri0NUBL9oFHGYHDJe4F-36" value="&lt;b&gt;PlayerMatchInfo.fifo&lt;/b&gt;" style="sketch=0;points=[[0,0,0],[0.25,0,0],[0.5,0,0],[0.75,0,0],[1,0,0],[0,1,0],[0.25,1,0],[0.5,1,0],[0.75,1,0],[1,1,0],[0,0.25,0],[0,0.5,0],[0,0.75,0],[1,0.25,0],[1,0.5,0],[1,0.75,0]];outlineConnect=0;fontColor=#232F3E;gradientColor=#FF4F8B;gradientDirection=north;fillColor=#BC1356;strokeColor=#ffffff;dashed=0;verticalLabelPosition=bottom;verticalAlign=top;align=center;html=1;fontSize=12;fontStyle=0;aspect=fixed;shape=mxgraph.aws4.resourceIcon;resIcon=mxgraph.aws4.sqs;" vertex="1" parent="_-2gbWzzhIHMMazekIv1-1">
          <mxGeometry x="1570" y="222" width="78" height="78" as="geometry" />
        </mxCell>
        <mxCell id="lri0NUBL9oFHGYHDJe4F-37" value="&lt;b&gt;update stats&lt;/b&gt;" style="edgeStyle=orthogonalEdgeStyle;rounded=0;orthogonalLoop=1;jettySize=auto;html=1;entryX=0.5;entryY=0;entryDx=0;entryDy=0;entryPerimeter=0;" edge="1" parent="_-2gbWzzhIHMMazekIv1-1" source="lri0NUBL9oFHGYHDJe4F-39" target="lri0NUBL9oFHGYHDJe4F-40">
          <mxGeometry relative="1" as="geometry" />
        </mxCell>
        <mxCell id="lri0NUBL9oFHGYHDJe4F-38" style="edgeStyle=orthogonalEdgeStyle;rounded=0;orthogonalLoop=1;jettySize=auto;html=1;entryX=0;entryY=0.5;entryDx=0;entryDy=0;entryPerimeter=0;" edge="1" parent="_-2gbWzzhIHMMazekIv1-1" source="lri0NUBL9oFHGYHDJe4F-39" target="lri0NUBL9oFHGYHDJe4F-41">
          <mxGeometry relative="1" as="geometry">
            <mxPoint x="2060" y="110" as="targetPoint" />
          </mxGeometry>
        </mxCell>
        <mxCell id="lri0NUBL9oFHGYHDJe4F-39" value="&lt;b&gt;Consumer&lt;/b&gt;" style="outlineConnect=0;dashed=0;verticalLabelPosition=bottom;verticalAlign=top;align=center;html=1;shape=mxgraph.aws3.lambda_function;fillColor=#F58534;gradientColor=none;" vertex="1" parent="_-2gbWzzhIHMMazekIv1-1">
          <mxGeometry x="1810" y="225" width="69" height="72" as="geometry" />
        </mxCell>
        <mxCell id="lri0NUBL9oFHGYHDJe4F-40" value="" style="sketch=0;points=[[0,0,0],[0.25,0,0],[0.5,0,0],[0.75,0,0],[1,0,0],[0,1,0],[0.25,1,0],[0.5,1,0],[0.75,1,0],[1,1,0],[0,0.25,0],[0,0.5,0],[0,0.75,0],[1,0.25,0],[1,0.5,0],[1,0.75,0]];outlineConnect=0;fontColor=#232F3E;gradientColor=#4D72F3;gradientDirection=north;fillColor=#3334B9;strokeColor=#ffffff;dashed=0;verticalLabelPosition=bottom;verticalAlign=top;align=center;html=1;fontSize=12;fontStyle=0;aspect=fixed;shape=mxgraph.aws4.resourceIcon;resIcon=mxgraph.aws4.dynamodb;" vertex="1" parent="_-2gbWzzhIHMMazekIv1-1">
          <mxGeometry x="1805.5" y="450" width="78" height="78" as="geometry" />
        </mxCell>
        <mxCell id="lri0NUBL9oFHGYHDJe4F-41" value="&lt;b&gt;Discord API&lt;/b&gt;" style="outlineConnect=0;dashed=0;verticalLabelPosition=bottom;verticalAlign=top;align=center;html=1;shape=mxgraph.aws3.ec2;fillColor=#F58534;gradientColor=none;" vertex="1" parent="_-2gbWzzhIHMMazekIv1-1">
          <mxGeometry x="2080" y="60" width="76.5" height="93" as="geometry" />
        </mxCell>
        <mxCell id="017BgijWfvKQz7ERJaGF-0" value="&lt;font color=&quot;#007523&quot;&gt;&lt;b&gt;Incase duplicate&amp;nbsp;happened, fifo will remove them, and incase the other duplicate was in DLQ and after 5 minutes&amp;nbsp;redriven, it will be ignored because of latest timestamp&lt;/b&gt;&lt;/font&gt;" style="shape=note;whiteSpace=wrap;html=1;backgroundOutline=1;darkOpacity=0.05;" vertex="1" parent="_-2gbWzzhIHMMazekIv1-1">
          <mxGeometry x="910" y="365" width="280" height="135" as="geometry" />
        </mxCell>
      </root>
    </mxGraphModel>
  </diagram>
</mxfile>
